<svg width="1480" height="1096" viewBox="0 0 1480 1096" fill="none" xmlns="http://www.w3.org/2000/svg">
    <path fill-rule="evenodd" clip-rule="evenodd" d="M27.5093 443.687L1036.97 443.655C1047.77 443.655 1056.99 451.494 1058.71 462.128L1103.53 740.174C1105.69 753.542 1095.35 765.668 1081.8 765.668L72.6208 765.7C61.8148 765.7 52.6132 757.877 50.883 747.227L5.77138 469.196C3.60074 455.829 13.9349 443.687 27.5093 443.687ZM1134.82 1094.47H657.187C646.366 1094.47 637.148 1086.61 635.449 1075.95L590.936 797.806C588.796 784.439 599.13 772.344 612.673 772.344H1089.98C1100.78 772.344 1110 780.182 1111.72 790.832L1156.58 1068.99C1158.73 1082.36 1148.38 1094.47 1134.82 1094.47ZM59.0325 797.838L103.594 1075.96C105.308 1086.63 114.525 1094.48 125.331 1094.48L606.05 1094.47C619.593 1094.47 629.927 1082.37 627.788 1069L583.352 790.879C581.654 780.214 572.436 772.36 561.599 772.36L80.7703 772.375C67.2274 772.375 56.8933 784.47 59.0325 797.838Z" fill="url(#paint0_linear)"/>
    <path d="M51.8755 516.76L46.4175 482.925H58.4189C60.8098 482.925 62.8389 483.333 64.5219 484.134C66.2049 484.935 67.5419 486.035 68.5171 487.386C69.4923 488.752 70.1215 490.245 70.3889 491.91C70.6249 493.371 70.5619 494.564 70.1844 495.507C69.8227 496.449 69.2564 497.203 68.5014 497.753C67.7464 498.303 66.897 498.711 65.9533 498.978L66.0004 499.308C67.0543 499.371 68.1711 499.732 69.3351 500.392C70.499 501.052 71.5372 501.994 72.4652 503.235C73.3775 504.476 73.9752 505.984 74.274 507.759C74.5414 509.456 74.3999 510.979 73.8336 512.33C73.2674 513.681 72.2135 514.765 70.6563 515.55C69.0991 516.336 66.9599 516.744 64.2702 516.744H51.8755V516.76ZM52.9766 497.785H60.6839C61.9266 497.785 63.0276 497.549 63.9556 497.062C64.8837 496.575 65.5915 495.9 66.0319 495.02C66.4881 494.14 66.6139 493.104 66.4251 491.91C66.1892 490.417 65.4499 489.161 64.2388 488.124C63.0276 487.087 61.2659 486.569 59.0009 486.569H51.152L52.9766 497.785ZM55.4461 513.115H63.6882C66.4094 513.115 68.2497 512.597 69.2249 511.56C70.2002 510.524 70.5777 509.251 70.326 507.775C70.1372 506.628 69.6811 505.576 68.9261 504.602C68.1711 503.628 67.2116 502.842 66.0162 502.261C64.8207 501.664 63.4838 501.382 61.9895 501.382H53.5429L55.4461 513.115Z" fill="white"/>
    <path d="M95.8707 506.376L93.4484 491.375H97.3964L101.486 516.759H97.538L96.8459 512.455H96.5785C96.1853 513.743 95.4145 514.843 94.2977 515.738C93.181 516.633 91.6395 517.089 89.6891 517.089C88.0847 517.089 86.5904 516.743 85.2377 516.036C83.8692 515.33 82.721 514.277 81.7772 512.864C80.8335 511.45 80.1886 509.659 79.8425 507.507L77.2472 491.375H81.1952L83.7591 507.24C84.058 509.094 84.8287 510.57 86.0556 511.67C87.2825 512.769 88.7296 513.319 90.3654 513.319C91.3406 513.319 92.3159 513.068 93.2596 512.581C94.2034 512.078 94.9426 511.324 95.4774 510.303C96.0122 509.282 96.1381 507.963 95.8707 506.376Z" fill="white"/>
    <path d="M123.098 497.062L119.701 498.052C119.386 497.471 118.961 496.905 118.442 496.34C117.923 495.774 117.263 495.319 116.476 494.957C115.674 494.596 114.714 494.408 113.55 494.408C111.977 494.408 110.719 494.769 109.791 495.476C108.863 496.183 108.486 497.094 108.659 498.177C108.816 499.151 109.303 499.905 110.106 500.471C110.908 501.036 112.103 501.508 113.676 501.869L117.64 502.796C120.031 503.345 121.887 504.178 123.192 505.309C124.498 506.44 125.3 507.885 125.583 509.66C125.819 511.121 125.599 512.409 124.954 513.555C124.294 514.702 123.271 515.597 121.871 516.257C120.471 516.917 118.773 517.247 116.775 517.247C114.148 517.247 111.883 516.681 109.98 515.566C108.077 514.451 106.724 512.802 105.922 510.65L109.524 509.723C110.106 511.089 110.939 512.11 112.056 512.802C113.173 513.493 114.526 513.823 116.146 513.823C117.986 513.823 119.386 513.43 120.361 512.66C121.321 511.875 121.714 510.948 121.541 509.864C121.399 508.984 120.975 508.246 120.251 507.634C119.528 507.037 118.489 506.581 117.152 506.283L112.701 505.293C110.247 504.743 108.391 503.895 107.101 502.733C105.812 501.57 105.025 500.109 104.742 498.366C104.506 496.936 104.711 495.664 105.355 494.565C106 493.465 106.976 492.601 108.313 491.973C109.634 491.344 111.207 491.03 113.016 491.03C115.564 491.03 117.656 491.58 119.292 492.68C120.927 493.779 122.186 495.256 123.098 497.062Z" fill="white"/>
    <path d="M129.232 487.15C128.461 487.15 127.753 486.883 127.124 486.365C126.495 485.846 126.117 485.218 125.991 484.495C125.866 483.773 126.054 483.145 126.526 482.626C126.998 482.108 127.612 481.856 128.382 481.856C129.153 481.856 129.861 482.124 130.49 482.626C131.135 483.145 131.497 483.773 131.623 484.495C131.748 485.218 131.56 485.846 131.088 486.365C130.616 486.883 130.002 487.15 129.232 487.15ZM132 516.76L127.91 491.375H131.859L135.948 516.76H132Z" fill="white"/>
    <path d="M143.97 501.492L146.44 516.76H142.492L138.402 491.376H142.224L142.869 495.35H143.199C143.593 494.062 144.348 493.025 145.449 492.24C146.55 491.454 148.075 491.062 150.01 491.062C151.756 491.062 153.329 491.407 154.76 492.114C156.176 492.821 157.372 493.873 158.315 495.287C159.275 496.701 159.92 498.491 160.266 500.643L162.861 516.775H158.913L156.349 500.91C156.019 498.915 155.248 497.36 154.021 496.245C152.794 495.13 151.253 494.564 149.428 494.564C148.17 494.564 147.085 494.831 146.188 495.381C145.291 495.931 144.631 496.716 144.238 497.737C143.813 498.758 143.734 500.015 143.97 501.492Z" fill="white"/>
    <path d="M180.258 517.278C177.773 517.278 175.555 516.728 173.589 515.645C171.622 514.561 170.002 513.037 168.713 511.089C167.438 509.142 166.573 506.864 166.164 504.256C165.74 501.665 165.866 499.371 166.51 497.376C167.155 495.381 168.256 493.842 169.814 492.711C171.371 491.596 173.306 491.03 175.633 491.03C176.97 491.03 178.339 491.25 179.707 491.69C181.091 492.13 182.397 492.837 183.624 493.826C184.851 494.816 185.92 496.12 186.817 497.738C187.714 499.355 188.358 501.35 188.736 503.722L189.003 505.372H169.169L168.618 501.994H184.442C184.206 500.565 183.718 499.293 182.963 498.162C182.208 497.046 181.249 496.151 180.085 495.507C178.921 494.863 177.631 494.533 176.2 494.533C174.627 494.533 173.321 494.91 172.299 495.68C171.276 496.45 170.553 497.439 170.144 498.664C169.735 499.89 169.625 501.193 169.861 502.591L170.223 504.838C170.537 506.754 171.135 508.372 172.016 509.707C172.912 511.042 174.013 512.047 175.319 512.739C176.64 513.43 178.087 513.775 179.692 513.775C180.73 513.775 181.642 513.634 182.444 513.336C183.246 513.037 183.891 512.597 184.41 512.016C184.929 511.435 185.291 510.697 185.48 509.817L189.475 510.869C189.286 512.142 188.783 513.273 187.997 514.231C187.21 515.189 186.156 515.943 184.835 516.477C183.53 517.011 182.004 517.278 180.258 517.278Z" fill="white"/>
    <path d="M211.214 497.062L207.816 498.052C207.502 497.471 207.077 496.905 206.558 496.34C206.039 495.79 205.378 495.319 204.592 494.957C203.79 494.596 202.83 494.408 201.666 494.408C200.093 494.408 198.835 494.769 197.907 495.476C196.979 496.183 196.601 497.094 196.774 498.177C196.932 499.151 197.419 499.905 198.221 500.471C199.024 501.036 200.219 501.508 201.792 501.869L205.756 502.796C208.147 503.345 210.003 504.178 211.308 505.309C212.614 506.44 213.416 507.885 213.699 509.66C213.935 511.121 213.715 512.409 213.07 513.555C212.409 514.702 211.387 515.597 209.987 516.257C208.587 516.917 206.888 517.247 204.891 517.247C202.264 517.247 199.999 516.681 198.096 515.566C196.192 514.451 194.84 512.802 194.037 510.65L197.639 509.723C198.221 511.089 199.055 512.11 200.172 512.802C201.289 513.493 202.641 513.823 204.261 513.823C206.102 513.823 207.502 513.43 208.477 512.66C209.436 511.875 209.83 510.948 209.657 509.864C209.515 508.984 209.075 508.246 208.367 507.634C207.643 507.037 206.605 506.581 205.268 506.283L200.817 505.293C198.379 504.743 196.507 503.895 195.217 502.733C193.927 501.57 193.141 500.109 192.858 498.366C192.622 496.936 192.826 495.664 193.471 494.565C194.116 493.465 195.091 492.601 196.428 491.973C197.75 491.344 199.322 491.03 201.131 491.03C203.68 491.03 205.771 491.58 207.407 492.68C209.043 493.811 210.317 495.256 211.214 497.062Z" fill="white"/>
    <path d="M235.169 497.062L231.772 498.052C231.457 497.471 231.032 496.905 230.513 496.34C229.994 495.774 229.333 495.319 228.547 494.957C227.745 494.596 226.785 494.408 225.621 494.408C224.048 494.408 222.79 494.769 221.862 495.476C220.934 496.183 220.557 497.094 220.73 498.177C220.887 499.151 221.374 499.905 222.177 500.471C222.979 501.036 224.174 501.508 225.747 501.869L229.711 502.796C232.102 503.345 233.958 504.178 235.263 505.309C236.569 506.44 237.371 507.885 237.654 509.66C237.89 511.121 237.67 512.409 237.025 513.555C236.364 514.702 235.342 515.597 233.942 516.257C232.542 516.917 230.843 517.247 228.846 517.247C226.219 517.247 223.954 516.681 222.051 515.566C220.148 514.451 218.795 512.802 217.993 510.65L221.595 509.723C222.177 511.089 223.01 512.11 224.127 512.802C225.244 513.493 226.597 513.823 228.217 513.823C230.057 513.823 231.457 513.43 232.432 512.66C233.392 511.875 233.785 510.948 233.612 509.864C233.47 508.984 233.046 508.246 232.322 507.634C231.598 507.037 230.56 506.581 229.223 506.283L224.772 505.293C222.318 504.743 220.462 503.895 219.172 502.733C217.883 501.57 217.096 500.109 216.813 498.366C216.577 496.936 216.781 495.664 217.426 494.565C218.071 493.465 219.047 492.601 220.383 491.973C221.705 491.344 223.278 491.03 225.087 491.03C227.635 491.03 229.727 491.58 231.363 492.68C232.998 493.779 234.272 495.256 235.169 497.062Z" fill="white"/>
    <path d="M255.146 482.925L260.604 516.76H256.656L251.198 482.925H255.146Z" fill="white"/>
    <path d="M277.67 517.278C275.342 517.278 273.218 516.728 271.299 515.645C269.38 514.561 267.76 513.021 266.47 511.074C265.181 509.11 264.315 506.817 263.891 504.193C263.466 501.555 263.576 499.245 264.237 497.266C264.897 495.287 266.014 493.763 267.587 492.68C269.16 491.58 271.11 491.046 273.438 491.046C275.766 491.046 277.89 491.596 279.809 492.68C281.728 493.763 283.348 495.303 284.638 497.266C285.927 499.23 286.793 501.539 287.217 504.193C287.642 506.817 287.516 509.11 286.856 511.074C286.195 513.037 285.078 514.561 283.505 515.645C281.948 516.744 279.998 517.278 277.67 517.278ZM277.103 513.775C278.865 513.775 280.249 513.335 281.24 512.44C282.231 511.545 282.892 510.382 283.206 508.922C283.521 507.461 283.537 505.89 283.269 504.193C283.002 502.497 282.467 500.911 281.681 499.45C280.894 497.989 279.856 496.795 278.582 495.9C277.292 494.989 275.766 494.549 274.005 494.549C272.243 494.549 270.859 495.004 269.868 495.9C268.877 496.795 268.216 497.989 267.902 499.45C267.587 500.911 267.571 502.497 267.839 504.193C268.106 505.89 268.641 507.461 269.427 508.922C270.214 510.382 271.236 511.545 272.526 512.44C273.816 513.335 275.342 513.775 277.103 513.775Z" fill="white"/>
    <path d="M306.58 526.797C304.677 526.797 302.994 526.562 301.531 526.075C300.084 525.603 298.842 524.975 297.804 524.19C296.765 523.42 295.916 522.587 295.24 521.708L298.039 519.524C298.464 519.98 299.015 520.514 299.66 521.111C300.304 521.708 301.138 522.242 302.161 522.682C303.183 523.122 304.473 523.357 306.03 523.357C308.106 523.357 309.742 522.854 310.937 521.865C312.133 520.875 312.558 519.32 312.212 517.2L311.378 512.047H311.048C310.827 512.503 310.513 513.084 310.088 513.76C309.663 514.435 309.003 515.032 308.106 515.566C307.21 516.084 305.92 516.351 304.237 516.351C302.161 516.351 300.21 515.864 298.417 514.891C296.608 513.917 295.082 512.519 293.824 510.665C292.566 508.812 291.732 506.565 291.307 503.926C290.883 501.319 290.993 499.057 291.606 497.125C292.22 495.193 293.273 493.701 294.752 492.632C296.231 491.564 298.055 491.046 300.226 491.046C301.893 491.046 303.277 491.313 304.347 491.863C305.416 492.412 306.282 493.025 306.926 493.716C307.571 494.407 308.075 494.973 308.436 495.413H308.845L308.201 491.376H312.023L316.238 517.482C316.584 519.666 316.38 521.441 315.593 522.807C314.807 524.174 313.643 525.195 312.054 525.839C310.466 526.483 308.641 526.797 306.58 526.797ZM304.19 512.864C305.778 512.864 307.052 512.503 308.043 511.796C309.018 511.074 309.695 510.052 310.041 508.702C310.387 507.351 310.418 505.749 310.12 503.879C309.821 502.057 309.286 500.439 308.499 499.041C307.713 497.643 306.706 496.544 305.479 495.758C304.253 494.973 302.837 494.564 301.233 494.564C299.565 494.564 298.228 494.989 297.253 495.821C296.278 496.654 295.617 497.785 295.303 499.198C294.972 500.612 294.957 502.167 295.224 503.895C295.507 505.654 296.042 507.209 296.828 508.56C297.615 509.911 298.621 510.964 299.848 511.733C301.107 512.472 302.538 512.864 304.19 512.864Z" fill="white"/>
    <path d="M319.855 487.15C319.085 487.15 318.377 486.883 317.748 486.365C317.118 485.846 316.741 485.218 316.615 484.495C316.489 483.773 316.678 483.145 317.15 482.626C317.622 482.108 318.235 481.856 319.006 481.856C319.777 481.856 320.485 482.124 321.114 482.626C321.759 483.145 322.12 483.773 322.246 484.495C322.372 485.218 322.183 485.846 321.711 486.365C321.24 486.883 320.626 487.15 319.855 487.15ZM322.624 516.76L318.534 491.375H322.482L326.572 516.76H322.624Z" fill="white"/>
    <path d="M343.638 517.278C341.232 517.278 339.061 516.713 337.126 515.597C335.207 514.482 333.619 512.927 332.36 510.948C331.102 508.969 330.268 506.722 329.859 504.193C329.45 501.617 329.561 499.34 330.205 497.361C330.85 495.381 331.951 493.842 333.509 492.711C335.066 491.596 337 491.03 339.328 491.03C341.137 491.03 342.82 491.36 344.377 492.02C345.935 492.68 347.272 493.606 348.388 494.8C349.505 495.994 350.307 497.376 350.779 498.963H346.831C346.344 497.8 345.51 496.779 344.33 495.884C343.151 494.989 341.688 494.533 339.942 494.533C338.4 494.533 337.111 494.926 336.088 495.711C335.066 496.497 334.342 497.612 333.933 499.041C333.524 500.471 333.477 502.136 333.776 504.052C334.091 506.016 334.688 507.712 335.553 509.173C336.418 510.634 337.488 511.749 338.778 512.566C340.068 513.367 341.483 513.775 343.056 513.775C344.079 513.775 344.991 513.603 345.777 513.241C346.564 512.896 347.193 512.377 347.665 511.718C348.137 511.058 348.42 510.257 348.514 509.33H352.462C352.478 510.838 352.148 512.173 351.471 513.367C350.795 514.561 349.788 515.503 348.467 516.21C347.146 516.917 345.541 517.278 343.638 517.278Z" fill="white"/>
    <path d="M65.8125 559.517C64.1766 559.517 62.6509 559.218 61.2195 558.606C59.7882 557.993 58.5928 557.113 57.6175 555.951C56.6423 554.789 56.0289 553.375 55.7615 551.726C55.5255 550.265 55.6199 549.087 56.0603 548.176C56.5008 547.265 57.1614 546.558 58.0422 546.039C58.9231 545.521 59.9455 545.128 61.078 544.877C62.2105 544.61 63.3744 544.406 64.5384 544.249C66.0642 544.044 67.3225 543.903 68.282 543.793C69.2415 543.683 69.9336 543.51 70.3425 543.259C70.7515 543.008 70.9088 542.568 70.7987 541.94L70.7829 541.814C70.5155 540.18 69.8706 538.924 68.8168 538.013C67.7787 537.117 66.3316 536.662 64.5227 536.662C62.6352 536.662 61.2195 537.07 60.2758 537.887C59.332 538.704 58.7186 539.568 58.4355 540.494L54.4717 539.175C54.8964 537.636 55.5885 536.426 56.5794 535.562C57.5546 534.698 58.6871 534.086 59.9769 533.74C61.2667 533.394 62.5408 533.222 63.8463 533.222C64.68 533.222 65.6395 533.316 66.7562 533.504C67.873 533.693 68.9741 534.086 70.0751 534.683C71.1762 535.279 72.1671 536.175 73.0322 537.369C73.8973 538.562 74.4951 540.18 74.8096 542.191L77.4993 558.904H73.5513L73.0008 555.464H72.7963C72.6233 556.014 72.2615 556.611 71.7424 557.223C71.2234 557.852 70.4684 558.386 69.5089 558.826C68.5494 559.265 67.3068 559.517 65.8125 559.517ZM65.8439 556.014C67.4011 556.014 68.6752 555.715 69.6662 555.103C70.6414 554.49 71.3335 553.72 71.7267 552.762C72.1199 551.804 72.2458 550.799 72.0727 549.746L71.4908 546.181C71.3492 546.385 71.0189 546.558 70.4841 546.715C69.9493 546.872 69.3201 547.013 68.6123 547.123C67.9045 547.233 67.2124 547.343 66.536 547.422C65.8597 547.5 65.3092 547.579 64.9002 547.626C63.8935 547.751 62.9655 547.971 62.1318 548.27C61.2825 548.568 60.6376 548.992 60.1971 549.574C59.741 550.155 59.5994 550.94 59.7567 551.93C59.9769 553.281 60.6533 554.302 61.7858 554.993C62.9183 555.668 64.271 556.014 65.8439 556.014Z" fill="white"/>
    <path d="M85.5361 543.652L88.0056 558.92H84.0575L79.9679 533.536H83.7901L84.435 537.494H84.7653C85.1586 536.206 85.9136 535.17 87.0146 534.384C88.1157 533.599 89.6414 533.206 91.5761 533.206C93.3221 533.206 94.895 533.552 96.3264 534.259C97.742 534.965 98.9374 536.018 99.8812 537.431C100.841 538.845 101.486 540.636 101.832 542.788L104.427 558.92H100.479L97.915 543.055C97.6004 541.06 96.814 539.505 95.5871 538.39C94.3602 537.274 92.8187 536.709 90.9941 536.709C89.7358 536.709 88.6505 536.976 87.7539 537.526C86.8573 538.076 86.1967 538.845 85.8035 539.882C85.4102 540.919 85.3001 542.175 85.5361 543.652Z" fill="white"/>
    <path d="M120.754 559.454C118.614 559.454 116.633 558.92 114.808 557.836C112.999 556.768 111.458 555.244 110.215 553.281C108.972 551.317 108.139 548.992 107.698 546.306C107.274 543.636 107.352 541.327 107.966 539.363C108.579 537.4 109.617 535.892 111.112 534.824C112.59 533.756 114.415 533.222 116.585 533.222C118.268 533.222 119.637 533.489 120.691 534.038C121.76 534.588 122.61 535.201 123.239 535.892C123.868 536.583 124.371 537.149 124.733 537.588H125.063L123.05 525.101H126.998L132.456 558.936H128.634L128.005 555.04H127.533C127.313 555.495 126.998 556.077 126.573 556.784C126.149 557.49 125.488 558.103 124.576 558.653C123.679 559.171 122.405 559.454 120.754 559.454ZM120.722 555.951C122.311 555.951 123.585 555.543 124.544 554.726C125.504 553.909 126.149 552.762 126.495 551.301C126.841 549.841 126.841 548.16 126.526 546.244C126.227 544.343 125.677 542.694 124.89 541.264C124.104 539.835 123.097 538.719 121.87 537.934C120.644 537.149 119.228 536.74 117.624 536.74C115.94 536.74 114.619 537.164 113.644 537.997C112.669 538.829 112.024 539.976 111.694 541.421C111.379 542.851 111.363 544.468 111.646 546.259C111.93 548.066 112.48 549.699 113.282 551.176C114.084 552.652 115.107 553.815 116.365 554.679C117.624 555.511 119.071 555.951 120.722 555.951Z" fill="white"/>
    <path d="M162.642 559.454C160.235 559.454 158.064 558.889 156.145 557.773C154.226 556.642 152.638 555.103 151.379 553.124C150.121 551.144 149.287 548.898 148.879 546.369C148.47 543.793 148.58 541.516 149.225 539.536C149.869 537.557 150.971 536.018 152.528 534.887C154.085 533.772 156.02 533.206 158.348 533.206C160.156 533.206 161.839 533.536 163.397 534.196C164.954 534.855 166.291 535.782 167.408 536.976C168.524 538.17 169.327 539.552 169.798 541.139H165.85C165.363 539.976 164.529 538.955 163.349 538.06C162.17 537.164 160.707 536.709 158.961 536.709C157.42 536.709 156.13 537.102 155.107 537.887C154.085 538.672 153.361 539.788 152.937 541.201C152.528 542.631 152.481 544.296 152.779 546.212C153.094 548.176 153.692 549.872 154.557 551.333C155.422 552.794 156.492 553.909 157.781 554.726C159.071 555.543 160.487 555.935 162.06 555.935C163.082 555.935 163.994 555.763 164.765 555.401C165.552 555.056 166.181 554.537 166.653 553.878C167.124 553.218 167.408 552.417 167.502 551.506H171.45C171.466 552.998 171.135 554.349 170.443 555.543C169.767 556.737 168.76 557.679 167.439 558.386C166.118 559.093 164.529 559.454 162.642 559.454Z" fill="white"/>
    <path d="M188.264 559.454C185.936 559.454 183.813 558.904 181.894 557.82C179.975 556.721 178.355 555.197 177.065 553.249C175.775 551.286 174.91 548.992 174.485 546.369C174.061 543.73 174.171 541.421 174.832 539.442C175.492 537.479 176.609 535.939 178.182 534.855C179.755 533.771 181.705 533.222 184.017 533.222C186.345 533.222 188.469 533.771 190.388 534.855C192.307 535.939 193.927 537.479 195.217 539.442C196.506 541.406 197.372 543.715 197.796 546.369C198.221 548.992 198.095 551.286 197.435 553.249C196.774 555.213 195.657 556.736 194.084 557.82C192.543 558.904 190.592 559.454 188.264 559.454ZM187.698 555.951C189.46 555.951 190.844 555.511 191.835 554.616C192.826 553.721 193.486 552.558 193.801 551.097C194.116 549.636 194.131 548.066 193.864 546.369C193.597 544.673 193.062 543.086 192.275 541.625C191.489 540.165 190.451 538.971 189.177 538.075C187.903 537.18 186.361 536.725 184.599 536.725C182.838 536.725 181.454 537.18 180.463 538.075C179.472 538.971 178.811 540.165 178.512 541.625C178.198 543.086 178.182 544.673 178.449 546.369C178.717 548.066 179.251 549.636 180.038 551.097C180.824 552.558 181.847 553.721 183.137 554.616C184.411 555.496 185.936 555.951 187.698 555.951Z" fill="white"/>
    <path d="M205.173 558.919L201.083 533.535H204.906L205.519 537.368H205.787C206.054 536.111 206.73 535.09 207.847 534.305C208.964 533.52 210.269 533.127 211.811 533.127C212.094 533.127 212.472 533.127 212.896 533.143C213.337 533.158 213.667 533.174 213.887 533.19L214.532 537.148C214.39 537.117 214.076 537.07 213.588 536.991C213.101 536.913 212.597 536.881 212.078 536.881C210.82 536.881 209.75 537.132 208.854 537.651C207.957 538.169 207.297 538.876 206.888 539.771C206.463 540.667 206.353 541.688 206.542 542.834L209.137 558.888H205.173V558.919Z" fill="white"/>
    <path d="M232.903 559.454C230.418 559.454 228.2 558.904 226.234 557.82C224.268 556.737 222.648 555.213 221.358 553.265C220.084 551.317 219.219 549.04 218.81 546.432C218.385 543.84 218.511 541.547 219.156 539.552C219.801 537.557 220.902 536.018 222.459 534.887C224.016 533.772 225.951 533.206 228.279 533.206C229.616 533.206 230.984 533.426 232.353 533.866C233.737 534.306 235.042 535.012 236.269 536.002C237.496 536.992 238.566 538.295 239.462 539.913C240.359 541.531 241.004 543.526 241.381 545.898L241.649 547.547H221.814L221.263 544.17H237.087C236.851 542.741 236.364 541.468 235.609 540.337C234.854 539.206 233.894 538.327 232.73 537.683C231.566 537.039 230.276 536.709 228.845 536.709C227.272 536.709 225.967 537.086 224.944 537.856C223.922 538.625 223.198 539.615 222.789 540.84C222.365 542.065 222.27 543.369 222.506 544.767L222.868 547.013C223.182 548.93 223.78 550.548 224.661 551.883C225.558 553.218 226.659 554.223 227.964 554.914C229.285 555.606 230.732 555.951 232.337 555.951C233.375 555.951 234.287 555.81 235.09 555.511C235.892 555.213 236.537 554.773 237.056 554.192C237.575 553.611 237.936 552.872 238.125 551.993L242.12 553.045C241.932 554.318 241.428 555.449 240.642 556.407C239.855 557.365 238.802 558.119 237.48 558.653C236.159 559.187 234.649 559.454 232.903 559.454Z" fill="white"/>
    <path d="M20.2436 378.685C20.0391 376.989 19.2212 375.669 17.7898 374.743C16.3585 373.816 14.6125 373.345 12.5205 373.345C10.9948 373.345 9.67351 373.596 8.541 374.083C7.40849 374.57 6.52765 375.245 5.89848 376.109C5.26931 376.973 4.95473 377.947 4.95473 379.031C4.95473 379.942 5.17494 380.727 5.61536 381.387C6.05578 382.047 6.62203 382.581 7.31412 383.005C8.00621 383.429 8.72975 383.79 9.48476 384.058C10.2398 384.325 10.9476 384.544 11.5768 384.717L15.0687 385.66C15.9652 385.895 16.9562 386.225 18.0572 386.634C19.1583 387.042 20.2121 387.608 21.2188 388.314C22.2255 389.021 23.0591 389.932 23.7198 391.032C24.3804 392.131 24.7107 393.498 24.7107 395.1C24.7107 396.954 24.2231 398.619 23.2636 400.127C22.2884 401.619 20.8885 402.813 19.0482 403.692C17.1921 404.572 14.9586 405.012 12.316 405.012C9.86226 405.012 7.73881 404.619 5.94567 403.818C4.15253 403.033 2.7369 401.917 1.73022 400.504C0.707818 399.09 0.125834 397.441 0 395.571H4.2941C4.4042 396.859 4.84462 397.928 5.61536 398.776C6.38609 399.624 7.34558 400.237 8.52527 400.645C9.70497 401.054 10.979 401.258 12.3318 401.258C13.9204 401.258 15.3361 400.991 16.6101 400.472C17.8842 399.954 18.8751 399.231 19.6144 398.305C20.3537 397.378 20.7155 396.278 20.7155 395.037C20.7155 393.906 20.4009 392.98 19.756 392.257C19.1268 391.55 18.2774 390.969 17.2393 390.513C16.2012 390.074 15.0844 389.681 13.8732 389.335L9.65778 388.126C6.9838 387.356 4.86035 386.257 3.28742 384.827C1.71449 383.398 0.943757 381.529 0.943757 379.219C0.943757 377.303 1.46282 375.622 2.51669 374.193C3.55482 372.763 4.97045 371.648 6.73213 370.847C8.50954 370.046 10.4757 369.653 12.6778 369.653C14.8956 369.653 16.8618 370.046 18.5763 370.831C20.2908 371.617 21.6592 372.685 22.6659 374.052C23.6726 375.418 24.2074 376.958 24.2703 378.685H20.2436Z" fill="#777A80"/>
    <path d="M34.2907 388.928V404.385H30.3427V370.11H34.2907V382.692H34.621C35.2187 381.357 36.131 380.305 37.3422 379.519C38.5533 378.734 40.1735 378.341 42.1868 378.341C43.9485 378.341 45.4742 378.687 46.7955 379.394C48.1167 380.085 49.1391 381.153 49.8784 382.598C50.602 384.028 50.9795 385.85 50.9795 388.065V404.401H47.0314V388.332C47.0314 386.29 46.4966 384.703 45.4428 383.588C44.3889 382.472 42.9261 381.907 41.0543 381.907C39.7645 381.907 38.6005 382.174 37.5781 382.724C36.5557 383.274 35.7535 384.075 35.1715 385.111C34.5738 386.164 34.2907 387.436 34.2907 388.928Z" fill="#777A80"/>
    <path d="M65.087 404.997C63.4512 404.997 61.9726 404.683 60.6513 404.07C59.3301 403.458 58.2605 402.547 57.4898 401.384C56.7033 400.206 56.3101 398.777 56.3101 397.112C56.3101 395.635 56.5932 394.441 57.1752 393.515C57.7572 392.588 58.5279 391.865 59.5031 391.347C60.4783 390.828 61.5479 390.436 62.7276 390.169C63.9073 389.902 65.087 389.698 66.2824 389.54C67.8396 389.336 69.1137 389.179 70.0889 389.085C71.0641 388.975 71.7877 388.802 72.2281 388.535C72.6843 388.284 72.9045 387.828 72.9045 387.2V387.074C72.9045 385.425 72.4483 384.137 71.5517 383.226C70.6552 382.315 69.2867 381.859 67.4779 381.859C65.5903 381.859 64.1118 382.268 63.0422 383.1C61.9726 383.933 61.2176 384.812 60.7772 385.739L57.0179 384.404C57.6942 382.849 58.5908 381.624 59.7076 380.744C60.8244 379.864 62.067 379.252 63.3882 378.906C64.7095 378.561 66.0308 378.372 67.3363 378.372C68.1699 378.372 69.1137 378.466 70.199 378.671C71.2844 378.859 72.3225 379.267 73.3292 379.864C74.3358 380.461 75.1852 381.372 75.8458 382.598C76.5222 383.807 76.8525 385.441 76.8525 387.483V404.416H72.9045V400.929H72.7C72.4326 401.494 71.9764 402.091 71.363 402.719C70.7338 403.363 69.9002 403.897 68.862 404.337C67.8396 404.777 66.5813 404.997 65.087 404.997ZM65.6847 401.447C67.2419 401.447 68.5632 401.133 69.6485 400.52C70.7338 399.908 71.536 399.122 72.1023 398.148C72.6685 397.175 72.9359 396.153 72.9359 395.085V391.473C72.7629 391.677 72.4011 391.85 71.8349 392.022C71.2686 392.179 70.6237 392.321 69.8844 392.446C69.1452 392.572 68.4373 392.666 67.761 392.745C67.0689 392.823 66.5184 392.902 66.0937 392.949C65.0713 393.075 64.1118 393.295 63.2152 393.593C62.3344 393.892 61.6108 394.331 61.076 394.913C60.5412 395.494 60.2581 396.295 60.2581 397.3C60.2581 398.667 60.7772 399.703 61.7996 400.41C62.8063 401.101 64.1118 401.447 65.6847 401.447Z" fill="#777A80"/>
    <path d="M83.4131 404.401V378.687H87.2353V382.567H87.5027C87.9746 381.294 88.824 380.258 90.0508 379.472C91.2777 378.687 92.6619 378.278 94.2034 378.278C94.4865 378.278 94.864 378.278 95.2887 378.294C95.7134 378.31 96.0594 378.325 96.2796 378.341V382.362C96.1381 382.331 95.8392 382.268 95.3674 382.205C94.8955 382.142 94.3921 382.095 93.8731 382.095C92.6147 382.095 91.5137 382.362 90.5227 382.881C89.5475 383.399 88.7768 384.122 88.2105 385.017C87.6443 385.928 87.3611 386.965 87.3611 388.127V404.401H83.4131Z" fill="#777A80"/>
    <path d="M111.048 404.934C108.563 404.934 106.424 404.385 104.631 403.285C102.837 402.185 101.453 400.646 100.494 398.667C99.5185 396.688 99.0466 394.379 99.0466 391.74C99.0466 389.101 99.5342 386.776 100.494 384.765C101.453 382.755 102.806 381.184 104.552 380.053C106.282 378.922 108.311 378.356 110.639 378.356C111.976 378.356 113.297 378.576 114.603 379.032C115.908 379.472 117.104 380.194 118.173 381.2C119.243 382.205 120.108 383.509 120.737 385.158C121.382 386.792 121.697 388.818 121.697 391.221V392.902H101.878V389.493H117.702C117.702 388.048 117.418 386.745 116.836 385.614C116.254 384.483 115.452 383.571 114.383 382.927C113.329 382.268 112.086 381.938 110.655 381.938C109.082 381.938 107.713 382.331 106.581 383.1C105.433 383.87 104.552 384.875 103.938 386.116C103.325 387.357 103.01 388.677 103.01 390.106V392.384C103.01 394.331 103.341 395.965 104.017 397.316C104.693 398.667 105.637 399.688 106.848 400.379C108.06 401.07 109.459 401.431 111.048 401.431C112.086 401.431 113.03 401.29 113.864 400.992C114.713 400.693 115.437 400.253 116.05 399.656C116.663 399.06 117.135 398.321 117.481 397.426L121.304 398.494C120.895 399.782 120.218 400.929 119.274 401.903C118.331 402.877 117.151 403.631 115.751 404.18C114.351 404.73 112.794 404.934 111.048 404.934Z" fill="#777A80"/>
    <path d="M136.75 404.935C134.611 404.935 132.708 404.385 131.072 403.301C129.436 402.217 128.147 400.678 127.219 398.683C126.291 396.688 125.834 394.332 125.834 391.614C125.834 388.913 126.291 386.572 127.219 384.593C128.147 382.614 129.436 381.074 131.088 379.99C132.74 378.907 134.658 378.373 136.813 378.373C138.496 378.373 139.818 378.655 140.793 379.205C141.768 379.755 142.523 380.383 143.042 381.074C143.561 381.765 143.97 382.347 144.253 382.787H144.584V370.142H148.532V404.416H144.71V400.474H144.238C143.955 400.945 143.53 401.526 142.995 402.233C142.46 402.94 141.689 403.568 140.699 404.118C139.708 404.668 138.402 404.935 136.75 404.935ZM137.285 401.385C138.874 401.385 140.211 400.976 141.312 400.144C142.413 399.311 143.231 398.165 143.813 396.672C144.379 395.196 144.662 393.484 144.662 391.552C144.662 389.635 144.379 387.954 143.829 386.509C143.278 385.064 142.444 383.933 141.343 383.132C140.242 382.331 138.89 381.923 137.285 381.923C135.602 381.923 134.218 382.347 133.101 383.211C131.985 384.059 131.151 385.221 130.6 386.682C130.05 388.143 129.767 389.777 129.767 391.583C129.767 393.421 130.05 395.07 130.616 396.562C131.182 398.055 132.016 399.233 133.133 400.112C134.25 400.945 135.634 401.385 137.285 401.385Z" fill="#777A80"/>
    <path d="M196.332 380.839H192.18C191.928 379.645 191.504 378.592 190.906 377.697C190.292 376.786 189.553 376.032 188.688 375.419C187.823 374.807 186.863 374.335 185.81 374.021C184.756 373.707 183.67 373.55 182.522 373.55C180.446 373.55 178.558 374.068 176.891 375.121C175.208 376.173 173.871 377.713 172.88 379.755C171.889 381.797 171.402 384.294 171.402 387.263C171.402 390.232 171.889 392.729 172.88 394.771C173.871 396.813 175.208 398.353 176.891 399.405C178.574 400.458 180.446 400.976 182.522 400.976C183.655 400.976 184.756 400.819 185.81 400.505C186.863 400.191 187.823 399.719 188.688 399.107C189.553 398.494 190.292 397.725 190.906 396.813C191.519 395.902 191.944 394.85 192.18 393.672H196.332C196.018 395.431 195.452 396.986 194.618 398.369C193.784 399.751 192.762 400.929 191.535 401.887C190.308 402.845 188.924 403.584 187.398 404.086C185.872 404.589 184.252 404.84 182.506 404.84C179.581 404.84 176.97 404.133 174.705 402.704C172.44 401.275 170.631 399.248 169.325 396.609C168.02 393.97 167.359 390.844 167.359 387.232C167.359 383.619 168.02 380.493 169.325 377.854C170.631 375.215 172.424 373.189 174.705 371.759C176.985 370.33 179.581 369.623 182.506 369.623C184.237 369.623 185.872 369.874 187.398 370.377C188.924 370.88 190.292 371.618 191.535 372.576C192.778 373.534 193.784 374.712 194.618 376.095C195.452 377.477 196.018 379.064 196.332 380.839Z" fill="#777A80"/>
    <path d="M212.251 404.934C209.924 404.934 207.894 404.384 206.149 403.285C204.403 402.185 203.034 400.63 202.059 398.651C201.084 396.672 200.596 394.347 200.596 391.692C200.596 389.022 201.084 386.682 202.059 384.687C203.034 382.692 204.403 381.137 206.149 380.037C207.894 378.937 209.939 378.388 212.251 378.388C214.579 378.388 216.609 378.937 218.354 380.037C220.1 381.137 221.469 382.692 222.444 384.687C223.419 386.682 223.907 389.022 223.907 391.692C223.907 394.347 223.419 396.672 222.444 398.651C221.469 400.63 220.1 402.185 218.354 403.285C216.609 404.384 214.579 404.934 212.251 404.934ZM212.251 401.384C214.013 401.384 215.46 400.929 216.609 400.033C217.757 399.138 218.59 397.944 219.141 396.468C219.691 394.991 219.959 393.405 219.959 391.677C219.959 389.949 219.691 388.362 219.141 386.87C218.59 385.393 217.757 384.184 216.609 383.273C215.476 382.362 214.013 381.906 212.251 381.906C210.49 381.906 209.027 382.362 207.894 383.273C206.762 384.184 205.913 385.393 205.362 386.87C204.812 388.362 204.544 389.949 204.544 391.677C204.544 393.405 204.812 394.991 205.362 396.468C205.913 397.944 206.746 399.122 207.894 400.033C209.043 400.944 210.49 401.384 212.251 401.384Z" fill="#777A80"/>
    <path d="M238.959 404.935C236.82 404.935 234.917 404.385 233.281 403.301C231.645 402.217 230.355 400.678 229.427 398.683C228.499 396.688 228.043 394.332 228.043 391.614C228.043 388.913 228.499 386.572 229.427 384.593C230.355 382.614 231.645 381.074 233.297 379.99C234.948 378.907 236.867 378.373 239.022 378.373C240.705 378.373 242.026 378.655 243.002 379.205C243.977 379.755 244.732 380.383 245.251 381.074C245.77 381.765 246.179 382.347 246.462 382.787H246.792V370.142H250.74V404.416H246.918V400.474H246.446C246.163 400.945 245.738 401.526 245.204 402.233C244.669 402.94 243.898 403.568 242.907 404.118C241.916 404.668 240.611 404.935 238.959 404.935ZM239.494 401.385C241.083 401.385 242.42 400.976 243.521 400.144C244.622 399.311 245.44 398.165 246.022 396.672C246.588 395.196 246.871 393.484 246.871 391.552C246.871 389.635 246.588 387.954 246.037 386.509C245.487 385.064 244.653 383.933 243.552 383.132C242.451 382.331 241.098 381.923 239.494 381.923C237.811 381.923 236.427 382.347 235.31 383.211C234.193 384.059 233.359 385.221 232.809 386.682C232.258 388.143 231.975 389.777 231.975 391.583C231.975 393.421 232.258 395.07 232.825 396.562C233.391 398.055 234.225 399.233 235.341 400.112C236.458 400.945 237.842 401.385 239.494 401.385Z" fill="#777A80"/>
    <path d="M268.609 404.934C266.123 404.934 263.984 404.385 262.191 403.285C260.398 402.185 259.014 400.646 258.054 398.667C257.079 396.688 256.607 394.379 256.607 391.74C256.607 389.101 257.095 386.776 258.054 384.765C259.014 382.755 260.366 381.184 262.112 380.053C263.843 378.922 265.872 378.356 268.2 378.356C269.537 378.356 270.858 378.576 272.163 379.032C273.469 379.472 274.664 380.194 275.734 381.2C276.804 382.205 277.669 383.509 278.298 385.158C278.943 386.792 279.257 388.818 279.257 391.221V392.902H259.423V389.493H275.246C275.246 388.048 274.963 386.745 274.381 385.614C273.799 384.483 272.997 383.571 271.928 382.927C270.874 382.268 269.631 381.938 268.2 381.938C266.627 381.938 265.258 382.331 264.126 383.1C262.978 383.87 262.097 384.875 261.483 386.116C260.87 387.357 260.555 388.677 260.555 390.106V392.384C260.555 394.331 260.886 395.965 261.562 397.316C262.238 398.667 263.182 399.688 264.393 400.379C265.604 401.07 267.004 401.431 268.593 401.431C269.631 401.431 270.575 401.29 271.408 400.992C272.258 400.693 272.981 400.253 273.595 399.656C274.208 399.06 274.68 398.321 275.026 397.426L278.848 398.494C278.439 399.782 277.763 400.929 276.819 401.903C275.876 402.877 274.696 403.631 273.296 404.18C271.896 404.73 270.355 404.934 268.609 404.934Z" fill="#777A80"/>
    <path d="M348.702 1.05273V35.3275H344.675L325.973 8.41976H325.643V35.3275H321.49V1.05273H325.517L344.282 28.0233H344.612V1.05273H348.702Z" fill="#777A80"/>
    <path d="M363.347 35.9239C361.711 35.9239 360.232 35.6097 358.911 34.9971C357.59 34.3845 356.52 33.4734 355.749 32.311C354.963 31.1329 354.57 29.7035 354.57 28.0385C354.57 26.5619 354.853 25.3681 355.435 24.4414C356.017 23.5146 356.788 22.8077 357.763 22.2737C358.738 21.7553 359.808 21.3626 360.987 21.0956C362.167 20.8285 363.347 20.6243 364.542 20.4673C366.099 20.2631 367.373 20.106 368.349 20.0117C369.324 19.9018 370.047 19.729 370.488 19.4619C370.944 19.2106 371.164 18.7551 371.164 18.1268V17.9854C371.164 16.3361 370.708 15.048 369.811 14.137C368.915 13.2259 367.546 12.7704 365.737 12.7704C363.85 12.7704 362.371 13.1788 361.302 14.0113C360.232 14.8438 359.477 15.7235 359.037 16.6502L355.278 15.3151C355.954 13.76 356.85 12.5347 357.967 11.6551C359.084 10.7755 360.327 10.1628 361.648 9.81727C362.985 9.4717 364.29 9.2832 365.596 9.2832C366.43 9.2832 367.373 9.37745 368.459 9.58165C369.544 9.77015 370.582 10.1786 371.589 10.7755C372.595 11.3724 373.445 12.2834 374.105 13.5086C374.782 14.7182 375.112 16.3518 375.112 18.3938V35.327H371.164V31.8555H370.96C370.692 32.421 370.236 33.0022 369.623 33.6462C368.993 34.2902 368.16 34.8243 367.122 35.2641C366.099 35.704 364.841 35.9239 363.347 35.9239ZM363.944 32.3739C365.502 32.3739 366.823 32.0597 367.908 31.4471C368.993 30.8345 369.796 30.0491 370.362 29.0752C370.912 28.1013 371.196 27.0803 371.196 26.0122V22.3993C371.023 22.6035 370.661 22.7763 370.095 22.9491C369.528 23.1062 368.883 23.2476 368.144 23.3732C367.405 23.4832 366.697 23.5931 366.021 23.6717C365.329 23.7502 364.778 23.8288 364.353 23.8759C363.331 24.0173 362.371 24.2215 361.475 24.5199C360.594 24.8184 359.87 25.2582 359.336 25.8394C358.801 26.4206 358.518 27.2217 358.518 28.227C358.518 29.5936 359.037 30.6303 360.059 31.3214C361.066 32.0283 362.371 32.3739 363.944 32.3739Z" fill="#777A80"/>
    <path d="M392.87 9.61357V12.9594H379.531V9.61357H392.87ZM383.416 3.45605H387.364V27.9604C387.364 29.0757 387.537 29.9082 387.852 30.458C388.182 31.0078 388.607 31.3848 389.126 31.5576C389.645 31.746 390.196 31.8403 390.778 31.8403C391.218 31.8403 391.564 31.8089 391.847 31.7618C392.13 31.7146 392.35 31.6675 392.523 31.6361L393.326 35.1861C393.058 35.2803 392.681 35.3903 392.209 35.5002C391.721 35.6102 391.124 35.6573 390.384 35.6573C389.268 35.6573 388.182 35.4217 387.113 34.9348C386.043 34.4478 385.162 33.7252 384.47 32.7356C383.778 31.7618 383.416 30.5208 383.416 29.0129V3.45605Z" fill="#777A80"/>
    <path d="M400.136 5.3407C399.365 5.3407 398.704 5.07366 398.154 4.5553C397.603 4.03694 397.32 3.40862 397.32 2.67035C397.32 1.93208 397.603 1.30376 398.154 0.785397C398.704 0.267035 399.365 0 400.136 0C400.907 0 401.567 0.267035 402.118 0.785397C402.668 1.30376 402.951 1.93208 402.951 2.67035C402.951 3.40862 402.668 4.03694 402.118 4.5553C401.567 5.07366 400.907 5.3407 400.136 5.3407ZM398.122 35.3271V9.61326H402.071V35.3114H398.122V35.3271Z" fill="#777A80"/>
    <path d="M429.661 9.61328L420.145 35.3115H416.118L406.602 9.61328H410.896L418.006 30.0964H418.273L425.383 9.61328H429.661Z" fill="#777A80"/>
    <path d="M444.966 35.861C442.481 35.861 440.342 35.3112 438.548 34.2116C436.755 33.1121 435.371 31.5727 434.412 29.5935C433.436 27.6143 432.964 25.3052 432.964 22.682C432.964 20.0431 433.452 17.7183 434.412 15.7077C435.371 13.6971 436.724 12.1263 438.47 10.9953C440.2 9.86431 442.229 9.29883 444.557 9.29883C445.894 9.29883 447.215 9.51874 448.521 9.97427C449.826 10.4298 451.022 11.1367 452.091 12.142C453.161 13.1316 454.026 14.451 454.655 16.1004C455.3 17.734 455.615 19.7603 455.615 22.1636V23.8444H435.78V20.4358H451.604C451.604 18.9906 451.321 17.6869 450.739 16.5559C450.157 15.4249 449.354 14.5296 448.285 13.8698C447.231 13.2101 445.988 12.8802 444.557 12.8802C442.984 12.8802 441.616 13.2729 440.483 14.0426C439.335 14.8123 438.454 15.8176 437.841 17.0585C437.227 18.2995 436.913 19.6189 436.913 21.0484V23.326C436.913 25.2738 437.243 26.9074 437.919 28.2583C438.596 29.6092 439.539 30.6302 440.751 31.3214C441.962 32.0125 443.362 32.3581 444.95 32.3581C445.988 32.3581 446.932 32.2167 447.766 31.9183C448.599 31.6198 449.339 31.18 449.952 30.5831C450.566 29.9862 451.037 29.2322 451.384 28.3526L455.206 29.4207C454.797 30.7087 454.12 31.8554 453.177 32.8293C452.233 33.8032 451.053 34.5729 449.653 35.107C448.285 35.5939 446.712 35.861 444.966 35.861Z" fill="#777A80"/>
    <path d="M501.669 11.7653H497.516C497.264 10.5715 496.84 9.51904 496.242 8.62368C495.629 7.71262 494.889 6.95864 494.024 6.33033C493.159 5.71772 492.2 5.24648 491.146 4.93232C490.092 4.61816 489.007 4.46108 487.858 4.46108C485.782 4.46108 483.895 4.97944 482.227 6.03188C480.544 7.08431 479.207 8.62368 478.216 10.6657C477.225 12.7077 476.738 15.2053 476.738 18.1741C476.738 21.1429 477.225 23.6405 478.216 25.6825C479.207 27.7245 480.544 29.2639 482.227 30.3163C483.91 31.3688 485.782 31.8871 487.858 31.8871C488.991 31.8871 490.092 31.7301 491.146 31.4159C492.2 31.1017 493.159 30.6305 494.024 30.0179C494.889 29.4053 495.629 28.6356 496.242 27.7245C496.855 26.8135 497.28 25.7768 497.516 24.5829H501.669C501.354 26.3422 500.788 27.8973 499.954 29.2796C499.12 30.6619 498.098 31.84 496.871 32.7982C495.644 33.7721 494.26 34.4947 492.734 34.9973C491.209 35.5 489.589 35.7513 487.843 35.7513C484.917 35.7513 482.306 35.0287 480.041 33.615C477.76 32.1856 475.967 30.1593 474.661 27.5203C473.356 24.8814 472.695 21.7712 472.695 18.1584C472.695 14.5456 473.356 11.4197 474.661 8.78076C475.967 6.14183 477.76 4.11551 480.041 2.68608C482.322 1.25666 484.917 0.549805 487.843 0.549805C489.573 0.549805 491.209 0.801132 492.734 1.30379C494.26 1.80644 495.629 2.54471 496.871 3.5029C498.098 4.47679 499.12 5.63918 499.954 7.02147C500.788 8.40377 501.354 10.006 501.669 11.7653Z" fill="#777A80"/>
    <path d="M517.572 35.8609C515.244 35.8609 513.215 35.3111 511.469 34.2115C509.723 33.112 508.355 31.5569 507.379 29.5777C506.404 27.5985 505.917 25.2737 505.917 22.6191C505.917 19.933 506.404 17.6082 507.379 15.6133C508.355 13.6184 509.723 12.0633 511.469 10.9638C513.215 9.86423 515.26 9.31445 517.572 9.31445C519.9 9.31445 521.929 9.86423 523.675 10.9638C525.421 12.0633 526.789 13.6184 527.765 15.6133C528.74 17.6082 529.227 19.9487 529.227 22.6191C529.227 25.2737 528.74 27.5985 527.765 29.5777C526.789 31.5569 525.421 33.112 523.675 34.2115C521.929 35.3111 519.9 35.8609 517.572 35.8609ZM517.572 32.3109C519.334 32.3109 520.781 31.8553 521.929 30.96C523.061 30.0489 523.911 28.8708 524.461 27.3943C525.012 25.9177 525.279 24.3312 525.279 22.6034C525.279 20.8755 525.012 19.289 524.461 17.7967C523.911 16.3202 523.077 15.1107 521.929 14.1996C520.796 13.2886 519.334 12.8173 517.572 12.8173C515.81 12.8173 514.347 13.2729 513.215 14.1996C512.082 15.1107 511.233 16.3202 510.682 17.7967C510.132 19.289 509.865 20.8755 509.865 22.6034C509.865 24.3312 510.132 25.9177 510.682 27.3943C511.233 28.8708 512.067 30.0489 513.215 30.96C514.363 31.8553 515.81 32.3109 517.572 32.3109Z" fill="#777A80"/>
    <path d="M544.281 35.8615C542.142 35.8615 540.238 35.3117 538.602 34.2279C536.967 33.1441 535.677 31.6047 534.749 29.6098C533.821 27.6149 533.365 25.2587 533.365 22.5412C533.365 19.8394 533.821 17.4989 534.749 15.5197C535.677 13.5405 536.967 12.0012 538.618 10.9173C540.27 9.83347 542.189 9.2994 544.344 9.2994C546.027 9.2994 547.348 9.58214 548.323 10.1319C549.298 10.6817 550.053 11.31 550.572 12.0012C551.092 12.6923 551.5 13.2735 551.784 13.7133H552.114V1.05273H556.062V35.3275H552.24V31.3848H551.768C551.485 31.856 551.06 32.4372 550.525 33.1441C549.99 33.8509 549.22 34.4792 548.229 35.0447C547.238 35.6102 545.932 35.8615 544.281 35.8615ZM544.816 32.3115C546.404 32.3115 547.741 31.9031 548.842 31.0706C549.943 30.2381 550.761 29.0914 551.343 27.5991C551.925 26.1069 552.193 24.4104 552.193 22.4627C552.193 20.5463 551.909 18.8655 551.359 17.4204C550.808 15.9753 549.975 14.8443 548.874 14.0432C547.773 13.2264 546.42 12.8337 544.816 12.8337C543.132 12.8337 541.748 13.2578 540.632 14.1217C539.515 14.97 538.681 16.1324 538.131 17.5932C537.58 19.054 537.297 20.6719 537.297 22.4941C537.297 24.3319 537.58 25.9812 538.146 27.4735C538.713 28.9657 539.546 30.1438 540.663 31.0235C541.78 31.8717 543.164 32.3115 544.816 32.3115Z" fill="#777A80"/>
    <path d="M573.946 35.861C571.461 35.861 569.322 35.3112 567.529 34.2116C565.735 33.1121 564.351 31.5727 563.392 29.5935C562.417 27.6143 561.945 25.3052 561.945 22.682C561.945 20.0431 562.432 17.7183 563.392 15.7077C564.351 13.6971 565.704 12.1263 567.45 10.9953C569.18 9.86431 571.209 9.29883 573.537 9.29883C574.874 9.29883 576.195 9.51874 577.501 9.97427C578.807 10.4298 580.002 11.1367 581.072 12.142C582.141 13.1316 583.006 14.451 583.635 16.1004C584.28 17.734 584.595 19.7603 584.595 22.1636V23.8444H564.76V20.4358H580.584C580.584 18.9906 580.301 17.6869 579.719 16.5559C579.137 15.4249 578.335 14.5296 577.265 13.8698C576.211 13.2101 574.969 12.8802 573.537 12.8802C571.964 12.8802 570.596 13.2729 569.463 14.0426C568.315 14.8123 567.434 15.8176 566.821 17.0585C566.207 18.2995 565.893 19.6189 565.893 21.0484V23.326C565.893 25.2738 566.223 26.9074 566.899 28.2583C567.576 29.6092 568.52 30.6302 569.731 31.3214C570.942 32.0125 572.342 32.3581 573.93 32.3581C574.969 32.3581 575.912 32.2167 576.746 31.9183C577.58 31.6198 578.319 31.18 578.932 30.5831C579.546 29.9862 580.018 29.2322 580.364 28.3526L584.186 29.4207C583.777 30.7087 583.101 31.8554 582.157 32.8293C581.213 33.8032 580.033 34.5729 578.633 35.107C577.249 35.5939 575.676 35.861 573.946 35.861Z" fill="#777A80"/>
    <path d="M925.873 725.675H444.431C433.625 725.675 424.407 717.837 422.693 707.187L324.747 99.8709C322.592 86.5035 332.926 74.377 346.484 74.377H827.926C838.732 74.377 847.95 82.2152 849.664 92.8652L947.611 700.166C949.781 713.564 939.431 725.675 925.873 725.675Z" fill="#F4F4F4"/>
    <path d="M1457.7 725.675H976.238C965.432 725.675 956.215 717.837 954.5 707.187L856.554 99.8709C854.399 86.5035 864.733 74.377 878.292 74.377H1359.73C1370.54 74.377 1379.76 82.2152 1381.47 92.8652L1479.42 700.166C1481.59 713.564 1471.25 725.675 1457.7 725.675Z" fill="#F4F4F4"/>
    <path fill-rule="evenodd" clip-rule="evenodd" d="M612.215 283.717C612.215 283.717 609.258 277.34 615.282 269.894C622.062 261.506 633.497 261.475 633.497 261.475C633.497 261.475 636.548 269.36 629.69 276.947C622.361 285.037 612.215 283.717 612.215 283.717ZM651.554 312.745C649.321 299.755 661.936 294.414 661.936 294.414C661.936 294.414 653.347 284.738 635.746 284.738C625.522 284.738 618.444 289.231 614.213 289.231C609.29 289.231 601.189 285.005 591.72 285.005C577.139 285.005 563.313 295.105 566.632 314.348C569.998 333.904 592.554 358.236 607.103 358.236C612.184 358.236 619.293 354.277 627.142 354.277C634.85 354.277 641.189 358.094 648.503 358.094C664.436 358.094 671.814 332.443 671.814 332.443C671.814 332.443 654.071 327.401 651.554 312.745Z" fill="#27282C"/>
    <path d="M585.319 400.302L600.104 428.78H600.513L606.113 400.302H610.47L603.329 434.137H599.035L580.978 400.302H585.319Z" fill="#27282C"/>
    <path d="M617.264 404.527C616.494 404.527 615.786 404.26 615.157 403.757C614.528 403.239 614.15 402.611 614.024 401.888C613.914 401.165 614.087 400.537 614.559 400.019C615.031 399.5 615.644 399.249 616.415 399.249C617.186 399.249 617.894 399.5 618.523 400.019C619.168 400.537 619.529 401.165 619.655 401.888C619.781 402.611 619.592 403.239 619.12 403.757C618.664 404.276 618.035 404.527 617.264 404.527ZM620.033 434.136L615.943 408.752H619.891L623.981 434.136H620.033Z" fill="#27282C"/>
    <path d="M641.394 434.655C638.908 434.655 636.691 434.121 634.725 433.022C632.758 431.938 631.138 430.414 629.848 428.466C628.574 426.518 627.709 424.241 627.3 421.633C626.891 419.026 627.001 416.732 627.646 414.753C628.291 412.774 629.392 411.219 630.949 410.088C632.507 408.973 634.441 408.407 636.769 408.407C638.106 408.407 639.475 408.627 640.843 409.067C642.227 409.507 643.533 410.229 644.76 411.203C645.987 412.193 647.056 413.497 647.953 415.114C648.849 416.732 649.494 418.727 649.872 421.099L650.139 422.749H630.305L629.754 419.371H645.578C645.342 417.942 644.854 416.67 644.099 415.539C643.344 414.423 642.385 413.528 641.221 412.884C640.057 412.24 638.767 411.91 637.336 411.91C635.763 411.91 634.457 412.287 633.435 413.057C632.412 413.826 631.689 414.816 631.28 416.041C630.871 417.266 630.761 418.57 630.997 419.968L631.358 422.214C631.673 424.131 632.271 425.749 633.152 427.084C634.032 428.419 635.149 429.424 636.455 430.1C637.776 430.791 639.223 431.137 640.827 431.137C641.866 431.137 642.778 430.995 643.58 430.697C644.382 430.398 645.027 429.958 645.546 429.377C646.065 428.796 646.427 428.058 646.616 427.178L650.611 428.231C650.422 429.503 649.919 430.634 649.133 431.592C648.346 432.55 647.292 433.304 645.971 433.838C644.665 434.388 643.14 434.655 641.394 434.655Z" fill="#27282C"/>
    <path d="M663.115 434.136L651.177 408.752H655.329L664.028 428.183H664.295L666.654 408.752H670.87L679.427 428.12H679.694L682.132 408.752H686.285L682.541 434.136H678.656L669.879 414.642H669.47L666.985 434.136H663.115Z" fill="#27282C"/>
    <path d="M1122.69 400.302L1137.48 428.78H1137.87L1143.47 400.302H1147.83L1140.69 434.137H1136.39L1118.34 400.302H1122.69Z" fill="#27282C"/>
    <path d="M1154.64 404.527C1153.87 404.527 1153.16 404.26 1152.53 403.757C1151.9 403.239 1151.53 402.611 1151.4 401.888C1151.29 401.165 1151.46 400.537 1151.93 400.019C1152.41 399.5 1153.02 399.249 1153.79 399.249C1154.56 399.249 1155.27 399.5 1155.9 400.019C1156.54 400.537 1156.9 401.165 1157.03 401.888C1157.16 402.611 1156.97 403.239 1156.5 403.757C1156.02 404.276 1155.41 404.527 1154.64 404.527ZM1157.41 434.136L1153.32 408.752H1157.27L1161.36 434.136H1157.41Z" fill="#27282C"/>
    <path d="M1178.77 434.655C1176.28 434.655 1174.07 434.121 1172.1 433.022C1170.13 431.922 1168.51 430.414 1167.22 428.466C1165.93 426.518 1165.08 424.241 1164.68 421.633C1164.25 419.041 1164.36 416.732 1165.02 414.753C1165.67 412.758 1166.77 411.219 1168.32 410.088C1169.88 408.973 1171.82 408.407 1174.14 408.407C1175.48 408.407 1176.85 408.627 1178.22 409.067C1179.6 409.507 1180.91 410.229 1182.13 411.203C1183.36 412.193 1184.43 413.497 1185.33 415.114C1186.22 416.732 1186.87 418.727 1187.25 421.099L1187.51 422.749H1167.68L1167.14 419.371H1182.97C1182.73 417.942 1182.25 416.67 1181.49 415.539C1180.74 414.423 1179.78 413.528 1178.61 412.884C1177.45 412.24 1176.16 411.91 1174.73 411.91C1173.15 411.91 1171.85 412.287 1170.83 413.057C1169.8 413.826 1169.08 414.816 1168.67 416.041C1168.26 417.266 1168.15 418.57 1168.39 419.968L1168.75 422.214C1169.06 424.131 1169.66 425.749 1170.54 427.084C1171.42 428.419 1172.54 429.424 1173.86 430.1C1175.18 430.791 1176.63 431.137 1178.23 431.137C1179.27 431.137 1180.18 430.995 1180.99 430.697C1181.79 430.398 1182.43 429.958 1182.95 429.377C1183.47 428.796 1183.83 428.058 1184.02 427.178L1188.02 428.231C1187.83 429.503 1187.33 430.634 1186.54 431.592C1185.75 432.55 1184.7 433.304 1183.38 433.838C1182.06 434.372 1180.51 434.655 1178.77 434.655Z" fill="#27282C"/>
    <path d="M1200.49 434.136L1188.55 408.752H1192.7L1201.4 428.183H1201.67L1204.03 408.752H1208.24L1216.8 428.12H1217.07L1219.51 408.752H1223.66L1219.92 434.136H1216.03L1207.25 414.642H1206.84L1204.36 434.136H1200.49Z" fill="#27282C"/>
    <path d="M1188.77 301.812L1196.02 286.01C1196.43 285.13 1195.79 283.999 1194.61 283.481C1193.43 282.962 1192.12 283.261 1191.71 284.156L1184.37 300.163C1175.04 296.943 1164.97 295.152 1154.62 295.152C1144.27 295.152 1135.07 296.943 1127.3 300.163L1112.23 284.156C1111.4 283.277 1109.95 282.978 1109.01 283.481C1108.07 283.999 1107.97 285.114 1108.81 286.01L1123.69 301.812C1106.67 310.341 1097.57 326.254 1099.93 344.899H1233.32C1226.7 326.269 1209.93 310.341 1188.77 301.812ZM1132.27 329.458C1129.17 329.458 1126.19 327.385 1125.57 324.856C1124.96 322.311 1126.97 320.253 1130.06 320.253C1133.15 320.253 1136.14 322.327 1136.76 324.856C1137.39 327.385 1135.37 329.458 1132.27 329.458ZM1193.51 329.458C1190.41 329.458 1187.42 327.385 1186.81 324.856C1186.19 322.311 1188.21 320.253 1191.29 320.253C1194.39 320.253 1197.38 322.327 1197.99 324.856C1198.62 327.385 1196.61 329.458 1193.51 329.458Z" fill="#27282C"/>
    <path d="M102.304 814.331C101.533 814.331 100.826 814.064 100.196 813.546C99.5672 813.027 99.1897 812.399 99.0796 811.661C98.9695 810.922 99.1425 810.294 99.6144 809.776C100.086 809.257 100.715 808.99 101.486 808.99C102.257 808.99 102.965 809.257 103.594 809.776C104.223 810.294 104.601 810.938 104.711 811.661C104.821 812.383 104.648 813.027 104.176 813.546C103.688 814.08 103.075 814.331 102.304 814.331ZM104.915 844.333L100.951 818.635H104.899L108.863 844.333H104.915Z" fill="white"/>
    <path d="M142.241 827.196C142.792 830.808 142.634 833.934 141.722 836.557C140.825 839.196 139.347 841.223 137.286 842.652C135.226 844.082 132.741 844.788 129.815 844.788C126.889 844.788 124.168 844.066 121.683 842.652C119.198 841.238 117.074 839.196 115.36 836.557C113.645 833.919 112.513 830.808 111.946 827.196C111.396 823.583 111.569 820.457 112.466 817.818C113.362 815.179 114.841 813.153 116.901 811.723C118.962 810.294 121.447 809.587 124.373 809.587C127.298 809.587 130.019 810.294 132.505 811.723C135.006 813.153 137.113 815.179 138.828 817.818C140.542 820.457 141.691 823.583 142.241 827.196ZM138.23 827.196C137.774 824.227 136.893 821.729 135.588 819.687C134.282 817.645 132.709 816.106 130.869 815.053C129.028 814.001 127.062 813.482 124.986 813.482C122.91 813.482 121.117 814.001 119.591 815.053C118.065 816.106 116.98 817.645 116.303 819.687C115.627 821.729 115.517 824.227 115.973 827.196C116.429 830.164 117.31 832.662 118.616 834.704C119.921 836.746 121.494 838.285 123.334 839.338C125.175 840.39 127.141 840.909 129.217 840.909C131.294 840.909 133.087 840.39 134.612 839.338C136.138 838.285 137.223 836.746 137.9 834.704C138.576 832.662 138.686 830.164 138.23 827.196Z" fill="white"/>
    <path d="M165.961 818.619C165.505 816.923 164.483 815.603 162.91 814.676C161.337 813.734 159.512 813.278 157.436 813.278C155.91 813.278 154.62 813.53 153.567 814.017C152.513 814.504 151.726 815.179 151.239 816.043C150.735 816.907 150.578 817.881 150.735 818.965C150.877 819.876 151.223 820.661 151.758 821.321C152.292 821.98 152.953 822.515 153.708 822.939C154.463 823.363 155.25 823.724 156.052 823.991C156.854 824.258 157.593 824.478 158.254 824.651L161.887 825.593C162.815 825.829 163.869 826.159 165.033 826.567C166.197 826.976 167.345 827.541 168.462 828.248C169.579 828.955 170.554 829.866 171.388 830.965C172.221 832.065 172.756 833.432 173.008 835.034C173.291 836.887 173.071 838.568 172.332 840.06C171.592 841.553 170.365 842.746 168.651 843.626C166.936 844.506 164.766 844.945 162.123 844.945C159.67 844.945 157.483 844.553 155.564 843.752C153.645 842.966 152.072 841.851 150.83 840.437C149.587 839.024 148.753 837.374 148.329 835.505H152.623C152.937 836.793 153.535 837.861 154.432 838.709C155.328 839.558 156.398 840.17 157.64 840.579C158.883 840.987 160.189 841.191 161.541 841.191C163.13 841.191 164.514 840.924 165.694 840.406C166.874 839.888 167.77 839.165 168.352 838.238C168.95 837.311 169.139 836.212 168.95 834.971C168.777 833.84 168.321 832.913 167.566 832.191C166.826 831.484 165.898 830.903 164.782 830.447C163.665 830.007 162.485 829.614 161.227 829.269L156.823 828.059C154.023 827.29 151.726 826.19 149.949 824.761C148.171 823.331 147.102 821.462 146.74 819.153C146.441 817.237 146.709 815.556 147.527 814.127C148.344 812.697 149.587 811.582 151.239 810.781C152.89 809.98 154.809 809.587 156.996 809.587C159.213 809.587 161.227 809.98 163.083 810.765C164.923 811.55 166.449 812.634 167.676 813.985C168.903 815.352 169.673 816.891 169.988 818.619H165.961Z" fill="white"/>
    <path d="M126.653 867.094L123.255 868.099C122.941 867.502 122.532 866.937 122.013 866.371C121.494 865.806 120.833 865.35 120.047 864.973C119.26 864.596 118.285 864.423 117.137 864.423C115.564 864.423 114.305 864.785 113.377 865.507C112.449 866.23 112.056 867.141 112.229 868.24C112.386 869.214 112.858 870 113.66 870.565C114.463 871.131 115.658 871.602 117.231 871.995L121.195 872.937C123.586 873.487 125.426 874.351 126.731 875.482C128.037 876.613 128.823 878.089 129.107 879.896C129.327 881.372 129.122 882.692 128.446 883.838C127.77 884.985 126.747 885.912 125.347 886.587C123.947 887.263 122.233 887.593 120.235 887.593C117.608 887.593 115.343 887.027 113.456 885.88C111.568 884.734 110.216 883.084 109.414 880.901L113.016 879.959C113.582 881.341 114.431 882.378 115.532 883.069C116.633 883.76 118.002 884.105 119.622 884.105C121.462 884.105 122.862 883.713 123.837 882.927C124.813 882.142 125.206 881.199 125.033 880.084C124.891 879.189 124.466 878.451 123.743 877.838C123.019 877.225 121.997 876.77 120.644 876.471L116.193 875.466C113.755 874.901 111.883 874.037 110.609 872.859C109.335 871.68 108.548 870.204 108.281 868.429C108.061 866.984 108.265 865.696 108.926 864.58C109.571 863.465 110.562 862.586 111.883 861.957C113.204 861.329 114.777 860.999 116.586 860.999C119.134 860.999 121.226 861.565 122.846 862.68C124.466 863.795 125.756 865.256 126.653 867.094Z" fill="white"/>
    <path d="M136.94 896.672L131.497 861.329H135.319L135.949 865.413H136.42C136.641 864.973 136.955 864.392 137.364 863.701C137.773 863.01 138.434 862.381 139.315 861.832C140.195 861.282 141.485 860.999 143.168 860.999C145.339 860.999 147.337 861.533 149.145 862.617C150.97 863.701 152.496 865.24 153.723 867.219C154.95 869.199 155.783 871.555 156.192 874.241C156.617 876.958 156.507 879.314 155.893 881.309C155.28 883.304 154.226 884.844 152.747 885.928C151.269 887.011 149.46 887.561 147.321 887.561C145.669 887.561 144.301 887.278 143.215 886.729C142.13 886.179 141.265 885.551 140.62 884.844C139.975 884.137 139.472 883.54 139.11 883.084H138.78L140.872 896.672H136.94ZM137.348 874.178C137.647 876.126 138.198 877.822 138.984 879.315C139.787 880.791 140.793 881.953 142.02 882.786C143.247 883.618 144.647 884.027 146.236 884.027C147.887 884.027 149.208 883.587 150.184 882.707C151.159 881.828 151.819 880.65 152.15 879.157C152.48 877.665 152.512 876.016 152.228 874.178C151.945 872.372 151.426 870.738 150.64 869.277C149.869 867.816 148.847 866.67 147.604 865.806C146.361 864.957 144.899 864.518 143.231 864.518C141.627 864.518 140.337 864.926 139.362 865.727C138.387 866.528 137.742 867.659 137.396 869.104C137.05 870.55 137.065 872.262 137.348 874.178Z" fill="white"/>
    <path d="M174.377 887.577C171.891 887.577 169.673 887.027 167.707 885.927C165.741 884.828 164.121 883.289 162.863 881.309C161.589 879.33 160.755 877.021 160.346 874.382C159.937 871.743 160.063 869.418 160.724 867.408C161.384 865.397 162.485 863.826 164.058 862.696C165.615 861.565 167.566 860.999 169.894 860.999C171.231 860.999 172.599 861.219 173.968 861.674C175.336 862.13 176.642 862.837 177.868 863.842C179.095 864.847 180.149 866.167 181.046 867.801C181.942 869.434 182.571 871.46 182.933 873.864L183.185 875.545H163.35L162.831 872.136H178.655C178.435 870.691 177.947 869.387 177.192 868.256C176.437 867.109 175.493 866.214 174.329 865.554C173.165 864.895 171.876 864.565 170.444 864.565C168.871 864.565 167.566 864.957 166.543 865.727C165.521 866.497 164.797 867.502 164.373 868.743C163.948 869.984 163.854 871.303 164.058 872.733L164.404 875.01C164.703 876.958 165.301 878.592 166.182 879.943C167.062 881.294 168.163 882.315 169.485 883.006C170.79 883.697 172.253 884.058 173.857 884.058C174.896 884.058 175.808 883.917 176.61 883.618C177.412 883.32 178.073 882.88 178.592 882.283C179.111 881.686 179.473 880.948 179.677 880.053L183.657 881.121C183.452 882.425 182.949 883.556 182.147 884.53C181.345 885.503 180.291 886.257 178.985 886.807C177.648 887.294 176.107 887.577 174.377 887.577Z" fill="white"/>
    <path d="M200.801 887.577C198.394 887.577 196.223 887.011 194.304 885.865C192.385 884.718 190.797 883.163 189.554 881.168C188.312 879.173 187.494 876.895 187.085 874.319C186.676 871.712 186.817 869.403 187.462 867.392C188.123 865.382 189.224 863.826 190.797 862.696C192.354 861.565 194.304 860.999 196.632 860.999C198.441 860.999 200.124 861.329 201.681 862.004C203.239 862.68 204.576 863.607 205.677 864.816C206.794 866.026 207.58 867.424 208.052 869.026H204.104C203.616 867.848 202.798 866.811 201.619 865.9C200.439 864.989 198.992 864.533 197.246 864.533C195.704 864.533 194.415 864.926 193.376 865.727C192.338 866.528 191.615 867.644 191.19 869.089C190.765 870.534 190.718 872.23 191.017 874.162C191.316 876.141 191.898 877.885 192.763 879.346C193.612 880.822 194.698 881.969 195.972 882.77C197.246 883.587 198.677 883.995 200.234 883.995C201.257 883.995 202.169 883.823 202.956 883.461C203.742 883.1 204.371 882.597 204.843 881.922C205.315 881.247 205.614 880.445 205.708 879.519H209.656C209.672 881.042 209.326 882.393 208.634 883.603C207.942 884.812 206.935 885.77 205.614 886.477C204.324 887.216 202.704 887.577 200.801 887.577Z" fill="white"/>
    <path d="M213.29 857.041C212.519 857.041 211.811 856.774 211.182 856.256C210.553 855.737 210.175 855.093 210.065 854.371C209.955 853.648 210.128 853.004 210.6 852.486C211.072 851.967 211.701 851.7 212.472 851.7C213.242 851.7 213.95 851.967 214.579 852.486C215.209 853.004 215.586 853.632 215.696 854.371C215.806 855.109 215.633 855.737 215.161 856.256C214.689 856.79 214.06 857.041 213.29 857.041ZM215.901 887.027L211.937 861.329H215.885L219.849 887.027H215.901Z" fill="white"/>
    <path d="M233.896 861.329L234.415 864.675H220.541L220.022 861.329H233.896ZM228.139 887.027L223.624 857.779C223.404 856.303 223.561 855.077 224.096 854.103C224.631 853.13 225.417 852.391 226.456 851.889C227.494 851.402 228.611 851.15 229.853 851.15C230.828 851.15 231.631 851.229 232.275 851.386C232.92 851.543 233.392 851.684 233.723 851.826L233.109 855.234C232.905 855.172 232.606 855.093 232.244 854.983C231.882 854.873 231.41 854.826 230.844 854.826C229.539 854.826 228.642 855.156 228.17 855.816C227.698 856.475 227.557 857.434 227.761 858.706L232.118 887.027H228.139Z" fill="white"/>
    <path d="M240.093 857.041C239.322 857.041 238.614 856.774 237.985 856.256C237.356 855.737 236.978 855.093 236.868 854.371C236.758 853.632 236.931 853.004 237.403 852.486C237.875 851.967 238.504 851.7 239.275 851.7C240.046 851.7 240.753 851.967 241.383 852.486C242.012 853.004 242.389 853.632 242.499 854.371C242.609 855.109 242.436 855.737 241.965 856.256C241.493 856.79 240.864 857.041 240.093 857.041ZM242.704 887.027L238.74 861.329H242.704L246.668 887.027H242.704Z" fill="white"/>
    <path d="M263.734 887.577C261.327 887.577 259.156 887.011 257.237 885.865C255.318 884.718 253.73 883.163 252.487 881.168C251.245 879.173 250.427 876.895 250.018 874.319C249.609 871.712 249.75 869.403 250.395 867.392C251.056 865.382 252.157 863.826 253.73 862.696C255.287 861.565 257.237 860.999 259.565 860.999C261.374 860.999 263.057 861.329 264.614 862.004C266.172 862.68 267.509 863.607 268.61 864.816C269.727 866.026 270.513 867.424 270.985 869.026H267.037C266.549 867.848 265.731 866.811 264.552 865.9C263.372 864.989 261.925 864.533 260.179 864.533C258.637 864.533 257.348 864.926 256.309 865.727C255.271 866.528 254.548 867.644 254.123 869.089C253.698 870.534 253.651 872.23 253.95 874.162C254.249 876.141 254.831 877.885 255.696 879.346C256.545 880.822 257.631 881.969 258.905 882.77C260.179 883.587 261.61 883.995 263.167 883.995C264.19 883.995 265.102 883.823 265.889 883.461C266.675 883.1 267.304 882.597 267.776 881.922C268.248 881.247 268.547 880.445 268.641 879.519H272.589C272.605 881.042 272.259 882.393 271.567 883.603C270.875 884.812 269.868 885.77 268.547 886.477C267.241 887.216 265.621 887.577 263.734 887.577Z" fill="white"/>
    <path d="M293.337 887.027H288.979L296.294 852.752H300.588L318.472 887.027H314.115L299.408 858.171H299.141L293.337 887.027ZM292.88 873.644H310.45L311.016 877.319H293.447L292.88 873.644Z" fill="white"/>
    <path d="M323.128 887.027L317.843 852.752H329.436C332.125 852.752 334.406 853.239 336.262 854.197C338.118 855.171 339.597 856.459 340.682 858.108C341.767 859.742 342.459 861.58 342.774 863.59C343.089 865.617 342.963 867.439 342.397 869.088C341.83 870.738 340.761 872.057 339.204 873.031C337.646 874.005 335.539 874.492 332.865 874.492H324.56L323.993 870.816H332.173C334.013 870.816 335.444 870.502 336.467 869.858C337.489 869.23 338.165 868.366 338.511 867.266C338.857 866.167 338.92 864.941 338.7 863.575C338.496 862.208 338.04 860.983 337.363 859.899C336.687 858.815 335.743 857.967 334.516 857.354C333.289 856.742 331.748 856.428 329.876 856.428H322.562L327.281 887.011H323.128V887.027Z" fill="white"/>
    <path d="M351.251 852.769L356.536 887.043H352.383L347.098 852.769H351.251Z" fill="white"/>
    <path d="M378.747 867.094L375.349 868.099C375.034 867.502 374.625 866.937 374.106 866.371C373.587 865.806 372.927 865.35 372.14 864.973C371.354 864.596 370.379 864.423 369.23 864.423C367.657 864.423 366.399 864.785 365.471 865.507C364.543 866.23 364.15 867.141 364.323 868.24C364.48 869.214 364.952 870 365.754 870.565C366.556 871.131 367.752 871.602 369.325 871.995L373.288 872.937C375.679 873.487 377.52 874.351 378.825 875.482C380.131 876.613 380.917 878.089 381.2 879.896C381.421 881.372 381.216 882.692 380.54 883.838C379.863 884.985 378.841 885.912 377.441 886.587C376.041 887.263 374.327 887.593 372.329 887.593C369.702 887.593 367.437 887.027 365.55 885.88C363.662 884.734 362.309 883.084 361.507 880.901L365.109 879.959C365.675 881.341 366.525 882.378 367.626 883.069C368.727 883.76 370.095 884.105 371.716 884.105C373.556 884.105 374.971 883.713 375.931 882.927C376.89 882.142 377.299 881.199 377.126 880.084C376.985 879.189 376.56 878.451 375.837 877.838C375.113 877.225 374.091 876.77 372.738 876.471L368.287 875.466C365.848 874.901 363.977 874.037 362.703 872.859C361.429 871.68 360.642 870.204 360.375 868.429C360.154 866.984 360.359 865.696 361.02 864.58C361.664 863.465 362.655 862.586 363.977 861.957C365.298 861.329 366.871 860.999 368.68 860.999C371.228 860.999 373.32 861.565 374.94 862.68C376.56 863.795 377.85 865.256 378.747 867.094Z" fill="white"/>
    <path d="M639.946 844.333H635.589L642.903 810.059H647.197L665.081 844.333H660.724L646.018 815.478H645.75L639.946 844.333ZM639.49 830.934H657.059L657.626 834.61H640.056L639.49 830.934Z" fill="white"/>
    <path d="M670.76 828.861L673.135 844.317H669.187L665.223 818.619H669.045L669.659 822.64H669.989C670.398 821.336 671.153 820.284 672.254 819.483C673.355 818.682 674.881 818.289 676.831 818.289C678.577 818.289 680.15 818.65 681.566 819.357C682.982 820.064 684.161 821.132 685.105 822.577C686.049 824.007 686.694 825.829 687.04 828.012L689.556 844.349H685.608L683.139 828.279C682.824 826.253 682.053 824.682 680.842 823.551C679.615 822.42 678.09 821.855 676.249 821.855C674.991 821.855 673.906 822.122 672.993 822.672C672.081 823.221 671.436 824.022 671.027 825.059C670.618 826.096 670.54 827.368 670.76 828.861Z" fill="white"/>
    <path d="M705.899 844.867C703.76 844.867 701.778 844.317 699.969 843.234C698.16 842.15 696.634 840.61 695.407 838.615C694.165 836.621 693.347 834.264 692.922 831.547C692.513 828.845 692.607 826.505 693.237 824.526C693.85 822.546 694.92 821.007 696.398 819.923C697.893 818.839 699.717 818.305 701.888 818.305C703.555 818.305 704.923 818.588 705.993 819.138C707.063 819.687 707.896 820.316 708.525 821.007C709.155 821.698 709.642 822.279 710.004 822.719H710.334L708.384 810.074H712.332L717.617 844.349H713.795L713.181 840.406H712.709C712.489 840.877 712.175 841.459 711.734 842.165C711.31 842.872 710.633 843.501 709.737 844.066C708.84 844.632 707.55 844.867 705.899 844.867ZM705.883 841.317C707.472 841.317 708.746 840.909 709.705 840.076C710.665 839.244 711.325 838.097 711.671 836.605C712.017 835.128 712.033 833.416 711.734 831.468C711.435 829.552 710.901 827.871 710.114 826.426C709.328 824.981 708.337 823.85 707.11 823.049C705.899 822.232 704.483 821.839 702.863 821.839C701.18 821.839 699.859 822.264 698.883 823.128C697.908 823.976 697.248 825.138 696.917 826.599C696.587 828.06 696.556 829.693 696.839 831.5C697.122 833.338 697.657 834.987 698.459 836.479C699.245 837.971 700.268 839.15 701.526 840.029C702.784 840.877 704.231 841.317 705.883 841.317Z" fill="white"/>
    <path d="M724.68 844.333L720.717 818.635H724.539L725.136 822.515H725.404C725.671 821.242 726.363 820.206 727.48 819.42C728.581 818.635 729.902 818.227 731.46 818.227C731.743 818.227 732.12 818.227 732.545 818.242C732.985 818.258 733.316 818.274 733.536 818.289L734.149 822.311C734.008 822.279 733.693 822.232 733.206 822.154C732.718 822.075 732.215 822.044 731.696 822.044C730.453 822.044 729.368 822.295 728.471 822.813C727.574 823.332 726.914 824.054 726.489 824.95C726.065 825.845 725.939 826.897 726.127 828.06L728.628 844.317H724.68V844.333Z" fill="white"/>
    <path d="M752.08 844.867C749.753 844.867 747.629 844.317 745.726 843.217C743.823 842.118 742.203 840.563 740.928 838.584C739.654 836.604 738.805 834.28 738.396 831.625C737.987 828.939 738.113 826.614 738.789 824.619C739.466 822.624 740.582 821.069 742.155 819.97C743.728 818.87 745.679 818.32 748.007 818.32C750.335 818.32 752.458 818.87 754.377 819.97C756.296 821.069 757.9 822.624 759.19 824.619C760.48 826.614 761.329 828.955 761.738 831.625C762.147 834.28 762.021 836.604 761.345 838.584C760.669 840.563 759.552 842.118 757.963 843.217C756.343 844.317 754.393 844.867 752.08 844.867ZM751.53 841.317C753.292 841.317 754.676 840.861 755.683 839.966C756.689 839.07 757.35 837.877 757.664 836.4C757.979 834.924 758.01 833.337 757.743 831.609C757.476 829.897 756.957 828.295 756.186 826.803C755.415 825.326 754.377 824.117 753.103 823.205C751.829 822.294 750.303 821.839 748.541 821.839C746.78 821.839 745.396 822.294 744.405 823.205C743.414 824.117 742.753 825.326 742.423 826.803C742.108 828.295 742.077 829.881 742.344 831.609C742.611 833.321 743.131 834.924 743.901 836.4C744.672 837.877 745.71 839.055 746.984 839.966C748.243 840.861 749.768 841.317 751.53 841.317Z" fill="white"/>
    <path d="M766.362 814.331C765.591 814.331 764.883 814.064 764.254 813.546C763.625 813.027 763.247 812.399 763.137 811.661C763.027 810.922 763.2 810.294 763.672 809.776C764.144 809.257 764.773 808.99 765.544 808.99C766.314 808.99 767.022 809.257 767.651 809.776C768.281 810.294 768.658 810.938 768.768 811.661C768.878 812.383 768.705 813.027 768.233 813.546C767.762 814.08 767.132 814.331 766.362 814.331ZM768.973 844.333L765.009 818.635H768.957L772.921 844.333H768.973Z" fill="white"/>
    <path d="M789.264 844.867C787.124 844.867 785.143 844.317 783.334 843.234C781.525 842.15 779.999 840.61 778.772 838.615C777.53 836.621 776.712 834.264 776.287 831.547C775.862 828.845 775.972 826.505 776.602 824.526C777.215 822.546 778.269 821.007 779.763 819.923C781.242 818.839 783.082 818.305 785.237 818.305C786.92 818.305 788.288 818.588 789.342 819.138C790.396 819.687 791.245 820.316 791.875 821.007C792.504 821.698 792.991 822.279 793.353 822.719H793.684L791.733 810.074H795.681L800.966 844.349H797.144L796.53 840.406H796.059C795.838 840.877 795.524 841.459 795.083 842.165C794.659 842.872 793.982 843.501 793.086 844.066C792.189 844.632 790.915 844.867 789.264 844.867ZM789.248 841.317C790.837 841.317 792.111 840.909 793.07 840.076C794.03 839.244 794.69 838.097 795.036 836.605C795.382 835.128 795.398 833.416 795.099 831.468C794.8 829.552 794.265 827.871 793.479 826.426C792.693 824.981 791.702 823.85 790.475 823.049C789.248 822.232 787.848 821.839 786.228 821.839C784.561 821.839 783.224 822.264 782.248 823.128C781.273 823.976 780.613 825.138 780.282 826.599C779.952 828.06 779.936 829.693 780.204 831.5C780.487 833.338 781.021 834.987 781.824 836.479C782.61 837.971 783.633 839.15 784.891 840.029C786.149 840.877 787.596 841.317 789.248 841.317Z" fill="white"/>
    <path d="M659.734 867.094L656.336 868.099C656.022 867.502 655.613 866.937 655.094 866.371C654.575 865.806 653.914 865.35 653.128 864.973C652.341 864.596 651.366 864.423 650.218 864.423C648.645 864.423 647.386 864.785 646.458 865.507C645.53 866.23 645.137 867.141 645.31 868.24C645.467 869.214 645.939 870 646.741 870.565C647.544 871.131 648.739 871.602 650.312 871.995L654.276 872.937C656.667 873.487 658.507 874.351 659.812 875.482C661.118 876.628 661.904 878.089 662.188 879.896C662.408 881.372 662.188 882.692 661.527 883.838C660.866 884.985 659.828 885.912 658.428 886.587C657.028 887.263 655.314 887.593 653.316 887.593C650.689 887.593 648.424 887.027 646.537 885.88C644.649 884.734 643.297 883.084 642.495 880.901L646.097 879.959C646.663 881.341 647.512 882.378 648.613 883.069C649.714 883.76 651.083 884.105 652.703 884.105C654.543 884.105 655.959 883.713 656.918 882.927C657.878 882.142 658.287 881.199 658.114 880.084C657.972 879.189 657.547 878.451 656.824 877.838C656.1 877.225 655.078 876.77 653.725 876.471L649.274 875.466C646.836 874.901 644.964 874.037 643.69 872.859C642.416 871.68 641.629 870.204 641.362 868.429C641.142 866.984 641.346 865.696 642.007 864.58C642.652 863.465 643.643 862.586 644.964 861.957C646.285 861.329 647.858 860.999 649.667 860.999C652.215 860.999 654.307 861.565 655.927 862.68C657.579 863.779 658.837 865.256 659.734 867.094Z" fill="white"/>
    <path d="M670.021 896.672L664.578 861.329H668.4L669.03 865.413H669.501C669.722 864.973 670.036 864.392 670.445 863.701C670.854 863.01 671.515 862.381 672.396 861.832C673.292 861.282 674.566 860.999 676.249 860.999C678.42 860.999 680.418 861.533 682.226 862.617C684.051 863.701 685.577 865.24 686.804 867.219C688.031 869.199 688.864 871.555 689.273 874.241C689.698 876.958 689.588 879.314 688.974 881.309C688.361 883.304 687.307 884.844 685.828 885.928C684.35 887.011 682.541 887.561 680.402 887.561C678.75 887.561 677.382 887.278 676.296 886.729C675.211 886.179 674.362 885.551 673.717 884.844C673.072 884.137 672.569 883.54 672.207 883.084H671.877L673.969 896.672H670.021ZM670.445 874.178C670.744 876.126 671.295 877.822 672.097 879.315C672.899 880.807 673.906 881.953 675.133 882.786C676.359 883.618 677.759 884.027 679.348 884.027C681 884.027 682.321 883.587 683.296 882.707C684.271 881.828 684.932 880.65 685.262 879.157C685.592 877.665 685.624 876.016 685.341 874.178C685.058 872.372 684.539 870.738 683.752 869.277C682.981 867.816 681.959 866.67 680.716 865.806C679.474 864.957 678.011 864.518 676.344 864.518C674.739 864.518 673.45 864.926 672.474 865.727C671.499 866.528 670.854 867.659 670.508 869.104C670.162 870.581 670.146 872.262 670.445 874.178Z" fill="white"/>
    <path d="M707.456 887.577C704.971 887.577 702.753 887.027 700.787 885.927C698.821 884.828 697.2 883.289 695.942 881.309C694.668 879.33 693.834 877.021 693.425 874.382C693.016 871.743 693.142 869.418 693.803 867.408C694.464 865.397 695.565 863.826 697.137 862.696C698.695 861.565 700.645 860.999 702.973 860.999C704.31 860.999 705.678 861.219 707.047 861.674C708.431 862.13 709.721 862.837 710.948 863.842C712.175 864.847 713.229 866.167 714.125 867.801C715.022 869.434 715.651 871.46 716.013 873.864L716.264 875.545H696.43L695.911 872.136H711.734C711.514 870.691 711.026 869.387 710.271 868.256C709.516 867.109 708.573 866.214 707.409 865.554C706.245 864.895 704.955 864.565 703.524 864.565C701.951 864.565 700.645 864.957 699.623 865.727C698.6 866.497 697.877 867.502 697.452 868.743C697.027 869.984 696.933 871.303 697.137 872.733L697.484 875.01C697.782 876.958 698.38 878.592 699.261 879.943C700.142 881.294 701.243 882.315 702.548 883.006C703.87 883.697 705.317 884.058 706.921 884.058C707.959 884.058 708.872 883.917 709.674 883.618C710.476 883.32 711.137 882.88 711.656 882.283C712.175 881.686 712.536 880.948 712.741 880.053L716.72 881.121C716.516 882.425 716.013 883.556 715.21 884.53C714.408 885.503 713.354 886.257 712.049 886.807C710.728 887.294 709.202 887.577 707.456 887.577Z" fill="white"/>
    <path d="M733.898 887.577C731.491 887.577 729.32 887.011 727.401 885.865C725.482 884.734 723.909 883.163 722.651 881.168C721.409 879.173 720.591 876.895 720.182 874.319C719.773 871.712 719.914 869.403 720.559 867.392C721.22 865.382 722.321 863.826 723.894 862.696C725.451 861.565 727.401 860.999 729.729 860.999C731.538 860.999 733.221 861.329 734.778 862.004C736.336 862.68 737.673 863.607 738.774 864.816C739.89 866.026 740.677 867.424 741.149 869.026H737.201C736.713 867.848 735.895 866.811 734.715 865.9C733.536 864.989 732.089 864.533 730.343 864.533C728.801 864.533 727.511 864.926 726.473 865.727C725.435 866.528 724.712 867.644 724.287 869.089C723.862 870.534 723.815 872.23 724.098 874.162C724.413 876.141 724.995 877.885 725.844 879.346C726.694 880.822 727.763 881.969 729.053 882.77C730.327 883.587 731.758 883.995 733.316 883.995C734.338 883.995 735.25 883.823 736.037 883.461C736.823 883.1 737.452 882.597 737.924 881.922C738.396 881.247 738.695 880.445 738.789 879.519H742.737C742.753 881.042 742.407 882.393 741.715 883.603C741.023 884.812 740.016 885.77 738.695 886.477C737.405 887.216 735.801 887.577 733.898 887.577Z" fill="white"/>
    <path d="M746.386 857.041C745.616 857.041 744.908 856.774 744.279 856.256C743.65 855.737 743.272 855.093 743.162 854.371C743.052 853.632 743.225 853.004 743.697 852.486C744.169 851.967 744.798 851.7 745.569 851.7C746.339 851.7 747.047 851.967 747.676 852.486C748.305 853.004 748.683 853.632 748.793 854.371C748.903 855.109 748.73 855.737 748.258 856.256C747.771 856.79 747.157 857.041 746.386 857.041ZM748.997 887.027L745.034 861.329H748.982L752.946 887.027H748.997Z" fill="white"/>
    <path d="M766.975 861.329L767.494 864.675H753.621L753.102 861.329H766.975ZM761.218 887.027L756.704 857.779C756.484 856.303 756.641 855.077 757.176 854.103C757.71 853.13 758.497 852.391 759.535 851.889C760.573 851.386 761.69 851.15 762.917 851.15C763.892 851.15 764.694 851.229 765.339 851.386C765.984 851.543 766.456 851.684 766.786 851.826L766.173 855.234C765.968 855.172 765.67 855.093 765.308 854.983C764.946 854.873 764.474 854.826 763.908 854.826C762.602 854.826 761.706 855.156 761.234 855.816C760.762 856.475 760.62 857.434 760.825 858.706L765.182 887.027H761.218Z" fill="white"/>
    <path d="M773.188 857.041C772.418 857.041 771.71 856.774 771.081 856.256C770.451 855.737 770.074 855.093 769.964 854.371C769.854 853.648 770.027 853.004 770.499 852.486C770.97 851.967 771.6 851.7 772.37 851.7C773.141 851.7 773.849 851.967 774.478 852.486C775.107 853.004 775.485 853.632 775.595 854.371C775.705 855.109 775.532 855.737 775.06 856.256C774.573 856.79 773.959 857.041 773.188 857.041ZM775.784 887.027L771.82 861.329H775.768L779.732 887.027H775.784Z" fill="white"/>
    <path d="M796.815 887.577C794.408 887.577 792.238 887.011 790.319 885.865C788.4 884.734 786.811 883.163 785.568 881.168C784.326 879.173 783.508 876.895 783.099 874.319C782.69 871.712 782.831 869.403 783.476 867.392C784.137 865.382 785.238 863.826 786.811 862.696C788.368 861.565 790.319 860.999 792.647 860.999C794.455 860.999 796.138 861.329 797.696 862.004C799.253 862.68 800.59 863.607 801.691 864.816C802.808 866.026 803.594 867.424 804.066 869.026H800.118C799.63 867.848 798.812 866.811 797.633 865.9C796.453 864.989 795.006 864.533 793.26 864.533C791.718 864.533 790.429 864.926 789.391 865.727C788.352 866.528 787.629 867.644 787.204 869.089C786.78 870.534 786.732 872.23 787.015 874.162C787.33 876.141 787.912 877.885 788.761 879.346C789.627 880.822 790.696 881.969 791.97 882.77C793.244 883.587 794.676 883.995 796.233 883.995C797.255 883.995 798.168 883.823 798.954 883.461C799.74 883.1 800.37 882.597 800.841 881.922C801.313 881.247 801.612 880.445 801.707 879.519H805.655C805.67 881.042 805.324 882.393 804.632 883.603C803.94 884.812 802.933 885.77 801.612 886.477C800.322 887.216 798.718 887.577 796.815 887.577Z" fill="white"/>
    <path d="M826.416 887.027H822.059L829.373 852.752H833.668L851.552 887.027H847.195L832.488 858.171H832.22L826.416 887.027ZM825.96 873.644H843.53L844.096 877.319H826.526L825.96 873.644Z" fill="white"/>
    <path d="M856.208 887.027L850.922 852.752H862.515C865.205 852.752 867.486 853.239 869.342 854.197C871.198 855.171 872.676 856.459 873.762 858.108C874.847 859.742 875.539 861.58 875.854 863.59C876.168 865.617 876.042 867.439 875.476 869.088C874.91 870.738 873.84 872.057 872.283 873.031C870.726 874.005 868.602 874.492 865.944 874.492H857.639L857.073 870.816H865.252C867.092 870.816 868.524 870.502 869.546 869.858C870.568 869.23 871.245 868.366 871.591 867.266C871.937 866.167 872 864.941 871.78 863.575C871.575 862.208 871.119 860.983 870.443 859.899C869.766 858.815 868.823 857.967 867.596 857.354C866.369 856.742 864.827 856.428 862.955 856.428H855.657L860.376 887.011H856.208V887.027Z" fill="white"/>
    <path d="M884.332 852.769L889.617 887.043H885.464L880.179 852.769H884.332Z" fill="white"/>
    <path d="M911.842 867.094L908.444 868.099C908.13 867.502 907.721 866.937 907.202 866.371C906.682 865.806 906.022 865.35 905.235 864.973C904.449 864.596 903.474 864.423 902.31 864.423C900.737 864.423 899.478 864.785 898.55 865.507C897.622 866.23 897.229 867.141 897.402 868.24C897.559 869.214 898.031 870 898.834 870.565C899.636 871.131 900.831 871.602 902.404 871.995L906.368 872.937C908.759 873.487 910.599 874.351 911.905 875.482C913.21 876.628 913.997 878.089 914.28 879.896C914.5 881.372 914.28 882.692 913.619 883.838C912.958 885.001 911.92 885.912 910.52 886.587C909.12 887.263 907.406 887.593 905.408 887.593C902.782 887.593 900.517 887.027 898.629 885.88C896.742 884.734 895.389 883.084 894.587 880.901L898.189 879.959C898.755 881.341 899.604 882.378 900.705 883.069C901.806 883.76 903.175 884.105 904.795 884.105C906.635 884.105 908.035 883.713 909.01 882.927C909.986 882.142 910.379 881.199 910.206 880.084C910.064 879.189 909.64 878.451 908.916 877.838C908.192 877.225 907.17 876.77 905.817 876.471L901.366 875.466C898.928 874.901 897.056 874.037 895.782 872.859C894.508 871.68 893.721 870.204 893.454 868.429C893.234 866.984 893.438 865.696 894.099 864.58C894.744 863.465 895.735 862.586 897.056 861.957C898.377 861.329 899.95 860.999 901.759 860.999C904.307 860.999 906.399 861.565 908.019 862.68C909.64 863.795 910.945 865.256 911.842 867.094Z" fill="white"/>
    <defs>
        <linearGradient id="paint0_linear" x1="298.869" y1="1182.33" x2="594.152" y2="808.143" gradientUnits="userSpaceOnUse">
            <stop stop-color="#EA4961"/>
            <stop offset="0.890523" stop-color="#7F52FF"/>
        </linearGradient>
    </defs>
</svg>
