<svg id="Layer_1" data-name="Layer 1" xmlns="http://www.w3.org/2000/svg" xmlns:xlink="http://www.w3.org/1999/xlink" viewBox="0 0 600 248.93"><defs><style>.cls-1{fill:url(#radial-gradient);}.cls-2{fill:#777a80;}.cls-3{fill:#fff;}</style><radialGradient id="radial-gradient" cx="185.8" cy="238.85" r="283.05" gradientUnits="userSpaceOnUse"><stop offset="0" stop-color="#e44857"/><stop offset="0.05" stop-color="#da4968"/><stop offset="0.22" stop-color="#be4c96"/><stop offset="0.38" stop-color="#a74ebc"/><stop offset="0.54" stop-color="#9650d9"/><stop offset="0.7" stop-color="#8951ee"/><stop offset="0.85" stop-color="#8252fb"/><stop offset="1" stop-color="#7f52ff"/></radialGradient></defs><path class="cls-1" d="M421.42,204.45v20a18.63,18.63,0,0,1-18.64,18.63H197.13a18.63,18.63,0,0,1-18.63-18.63v-20a18.64,18.64,0,0,1,18.63-18.64H402.78A18.64,18.64,0,0,1,421.42,204.45Zm-18.64-78.73H197.13a18.63,18.63,0,0,0-18.63,18.63v20A18.63,18.63,0,0,0,197.13,183H402.78a18.63,18.63,0,0,0,18.64-18.63v-20h0A18.63,18.63,0,0,0,402.78,125.72Zm0-120H197.13A18.63,18.63,0,0,0,178.5,24.36v20h0A18.63,18.63,0,0,0,197.13,63H402.78a18.63,18.63,0,0,0,18.64-18.63h0v-20h0A18.63,18.63,0,0,0,402.78,5.73Zm0,59.92H197.13A18.63,18.63,0,0,0,178.5,84.28v20a18.63,18.63,0,0,0,18.63,18.63H402.78a18.63,18.63,0,0,0,18.64-18.63v-20h0A18.63,18.63,0,0,0,402.78,65.65Z"/><path class="cls-2" d="M404,248.93H196.05a23.23,23.23,0,0,1-23.2-23.2l0-202.53A23.22,23.22,0,0,1,196,0H404a23.23,23.23,0,0,1,23.2,23.2l.05,202.53A23.22,23.22,0,0,1,404,248.93ZM196,.4a22.82,22.82,0,0,0-22.8,22.8l.05,202.53a22.83,22.83,0,0,0,22.8,22.8H404a22.82,22.82,0,0,0,22.8-22.8L426.75,23.2A22.83,22.83,0,0,0,404,.4Z"/><polygon class="cls-3" points="254.46 99.97 242.97 99.97 242.97 88.48 254.46 88.48 248.72 94.22 254.46 99.97"/><path class="cls-3" d="M263,100V88.49h4.6a4.26,4.26,0,0,1,1.94.41,3.09,3.09,0,0,1,1.29,1.16,3.39,3.39,0,0,1,.45,1.76,3.28,3.28,0,0,1-.46,1.76,3.13,3.13,0,0,1-1.31,1.18,4.5,4.5,0,0,1-2,.41h-3.17V100Zm4.6-6.09a2.57,2.57,0,0,0,1.18-.26,1.76,1.76,0,0,0,.78-.72,2.28,2.28,0,0,0,0-2.19,1.82,1.82,0,0,0-.78-.72,2.57,2.57,0,0,0-1.18-.25h-3.23V93.9Z"/><path class="cls-3" d="M276.84,91.49v1.37h-.3a2.38,2.38,0,0,0-1.81.69,2.7,2.7,0,0,0-.65,1.94V100h-1.32V91.58h1.32v1.69a2.93,2.93,0,0,1,1-1.32,2.56,2.56,0,0,1,1.52-.46Z"/><path class="cls-3" d="M285.57,96.1H278.9a3.75,3.75,0,0,0,.45,1.53,2.73,2.73,0,0,0,1,1,2.64,2.64,0,0,0,1.4.37,3.1,3.1,0,0,0,1-.16,2.63,2.63,0,0,0,.84-.46,1.63,1.63,0,0,0,.52-.67h1.27A2.51,2.51,0,0,1,284.7,99a3.68,3.68,0,0,1-1.34.88,4.4,4.4,0,0,1-1.7.32,4.14,4.14,0,0,1-2.14-.56A4,4,0,0,1,278.06,98a4.85,4.85,0,0,1-.53-2.28,4.67,4.67,0,0,1,.54-2.24A3.91,3.91,0,0,1,279.54,92a4,4,0,0,1,2.12-.57,3.62,3.62,0,0,1,2,.57,3.85,3.85,0,0,1,1.4,1.58,4.9,4.9,0,0,1,.51,2.25Zm-5.74-2.9a3,3,0,0,0-.9,1.82h5.26a3.07,3.07,0,0,0-.84-1.81,2.25,2.25,0,0,0-1.68-.67A2.65,2.65,0,0,0,279.83,93.2Z"/><path class="cls-3" d="M288.31,99.86a2.87,2.87,0,0,1-1.22-.9,2.17,2.17,0,0,1-.44-1.31H288a1.3,1.3,0,0,0,.29.76,1.75,1.75,0,0,0,.74.51,2.85,2.85,0,0,0,1.08.19,2.33,2.33,0,0,0,1.46-.4,1.29,1.29,0,0,0,.52-1.07,1.2,1.2,0,0,0-.32-.86,1.56,1.56,0,0,0-.93-.43l-1.53-.24a3,3,0,0,1-1.72-.8,2.15,2.15,0,0,1-.61-1.57,2,2,0,0,1,.39-1.22,2.55,2.55,0,0,1,1.08-.84,3.92,3.92,0,0,1,1.57-.3,4.19,4.19,0,0,1,1.63.3,2.71,2.71,0,0,1,1.13.84,2,2,0,0,1,.43,1.22h-1.31a1,1,0,0,0-.26-.65,1.62,1.62,0,0,0-.68-.47,2.59,2.59,0,0,0-.95-.17,2.65,2.65,0,0,0-.92.16,1.5,1.5,0,0,0-.63.45,1,1,0,0,0-.23.65,1.06,1.06,0,0,0,.3.79,1.53,1.53,0,0,0,.87.39l1.58.26a3,3,0,0,1,1.76.82,2.26,2.26,0,0,1,.61,1.63,2.39,2.39,0,0,1-.39,1.36,2.58,2.58,0,0,1-1.12.9,4,4,0,0,1-1.68.32A4.8,4.8,0,0,1,288.31,99.86Z"/><path class="cls-3" d="M302.5,96.1h-6.67a3.75,3.75,0,0,0,.45,1.53,2.83,2.83,0,0,0,1,1,2.6,2.6,0,0,0,1.39.37,3.1,3.1,0,0,0,1-.16,2.57,2.57,0,0,0,.85-.46,1.82,1.82,0,0,0,.52-.67h1.26a2.43,2.43,0,0,1-.68,1.24,3.56,3.56,0,0,1-1.33.88,4.48,4.48,0,0,1-1.71.32,4.13,4.13,0,0,1-2.13-.56A3.93,3.93,0,0,1,295,98a4.85,4.85,0,0,1-.52-2.28,4.78,4.78,0,0,1,.53-2.24,4,4,0,0,1,3.59-2.14,3.63,3.63,0,0,1,2,.57,3.92,3.92,0,0,1,1.4,1.58,5,5,0,0,1,.5,2.25Zm-5.73-2.9a2.91,2.91,0,0,0-.9,1.82h5.26a3.19,3.19,0,0,0-.84-1.81,2.28,2.28,0,0,0-1.68-.67A2.65,2.65,0,0,0,296.77,93.2Z"/><path class="cls-3" d="M309.88,91.78A2.84,2.84,0,0,1,311,92.94a3.84,3.84,0,0,1,.38,1.74V100H310V94.78a2.38,2.38,0,0,0-.55-1.68,2,2,0,0,0-1.54-.6,2.58,2.58,0,0,0-1.24.29,2.09,2.09,0,0,0-.83.86,2.89,2.89,0,0,0-.29,1.32v5h-1.31V91.58h1.26v1.28a2.71,2.71,0,0,1,1.09-1.11,3.64,3.64,0,0,1,3.26,0Z"/><path class="cls-3" d="M315.86,100a2.1,2.1,0,0,1-1.45-.49,1.73,1.73,0,0,1-.53-1.34V92.74H312.4V91.58h.91a.67.67,0,0,0,.5-.2.69.69,0,0,0,.2-.5V89.47h1.18v2.11h2v1.16h-2v5.34a.69.69,0,0,0,.74.74h1.28V100Z"/><path class="cls-3" d="M323.91,91.73a2.53,2.53,0,0,1,1.11,1,3,3,0,0,1,.4,1.6V100h-1.28V98.74A2.55,2.55,0,0,1,323,99.81a3.67,3.67,0,0,1-1.72.37,3.31,3.31,0,0,1-1.47-.31,2.42,2.42,0,0,1-1-.85,2.34,2.34,0,0,1-.35-1.26,2.32,2.32,0,0,1,.33-1.21,2.67,2.67,0,0,1,.92-.91,3.31,3.31,0,0,1,1.34-.43l2.46-.24a.63.63,0,0,0,.43-.23.94.94,0,0,0,.16-.59,1.59,1.59,0,0,0-.24-.88,1.64,1.64,0,0,0-.68-.59,2.36,2.36,0,0,0-1-.2,2.54,2.54,0,0,0-1,.19,2,2,0,0,0-.75.51,1.41,1.41,0,0,0-.34.73h-1.28a2.43,2.43,0,0,1,.54-1.28,3.29,3.29,0,0,1,1.23-.92,4.05,4.05,0,0,1,1.65-.33A3.7,3.7,0,0,1,323.91,91.73Zm-1,7.13a2,2,0,0,0,.9-.82,2.21,2.21,0,0,0,.33-1.2v-1l-2.87.29a1.67,1.67,0,0,0-1.06.49,1.41,1.41,0,0,0-.4,1,1.35,1.35,0,0,0,.22.76,1.55,1.55,0,0,0,.63.52,2.19,2.19,0,0,0,.92.19A2.89,2.89,0,0,0,322.89,98.86Z"/><path class="cls-3" d="M329.93,100a2.1,2.1,0,0,1-1.45-.49,1.73,1.73,0,0,1-.53-1.34V92.74h-1.48V91.58h.91a.67.67,0,0,0,.5-.2.69.69,0,0,0,.2-.5V89.47h1.18v2.11h2v1.16h-2v5.34a.69.69,0,0,0,.74.74h1.28V100Z"/><path class="cls-3" d="M333,90.05V88.49h1.5v1.56Zm1.41,9.94h-1.32V91.58h1.32Z"/><path class="cls-3" d="M338.26,99.61A4.07,4.07,0,0,1,336.75,98a4.92,4.92,0,0,1,0-4.52A4,4,0,0,1,338.27,92a4.42,4.42,0,0,1,4.34,0,4.1,4.1,0,0,1,1.52,1.57,4.69,4.69,0,0,1,.55,2.26,4.59,4.59,0,0,1-.56,2.26,4,4,0,0,1-1.52,1.57,4.22,4.22,0,0,1-2.18.57A4.15,4.15,0,0,1,338.26,99.61Zm3.65-1a2.84,2.84,0,0,0,1-1.12,4,4,0,0,0,0-3.34,2.77,2.77,0,0,0-5,0,4,4,0,0,0,0,3.34,2.84,2.84,0,0,0,1,1.12,2.9,2.9,0,0,0,2.94,0Z"/><path class="cls-3" d="M352.05,91.78a2.77,2.77,0,0,1,1.09,1.16,3.72,3.72,0,0,1,.38,1.74V100h-1.31V94.78a2.38,2.38,0,0,0-.56-1.68,2,2,0,0,0-1.54-.6,2.61,2.61,0,0,0-1.24.29,2.06,2.06,0,0,0-.82.86,2.76,2.76,0,0,0-.29,1.32v5h-1.32V91.58h1.27v1.28a2.75,2.75,0,0,1,1.08-1.11,3.3,3.3,0,0,1,1.61-.37A3.25,3.25,0,0,1,352.05,91.78Z"/><polygon class="cls-3" points="232.7 160.06 221.21 160.06 221.21 148.57 232.7 148.57 226.96 154.31 232.7 160.06"/><path class="cls-3" d="M249.05,155.11a2.73,2.73,0,0,1,.59,1.78,3,3,0,0,1-.47,1.64,3.21,3.21,0,0,1-1.33,1.13,4.22,4.22,0,0,1-1.91.41h-4.67V148.58h4.57a4,4,0,0,1,1.81.38A3.08,3.08,0,0,1,248.9,150a2.73,2.73,0,0,1,.45,1.54,2.55,2.55,0,0,1-.51,1.6,2.59,2.59,0,0,1-1.38.93A2.89,2.89,0,0,1,249.05,155.11Zm-6.45-5.3v3.82h3.23a2.21,2.21,0,0,0,1.08-.25,1.7,1.7,0,0,0,.73-.67,1.88,1.88,0,0,0,.26-1,1.83,1.83,0,0,0-.26-1,1.67,1.67,0,0,0-.73-.66,2.32,2.32,0,0,0-1.08-.24Zm3.33,9a2.62,2.62,0,0,0,1.18-.25,1.89,1.89,0,0,0,.8-.7,2.06,2.06,0,0,0,0-2.11,1.83,1.83,0,0,0-.8-.7,2.62,2.62,0,0,0-1.18-.25H242.6v4Z"/><path class="cls-3" d="M257.38,151.66h1.31v8.41h-1.26v-1.29a2.68,2.68,0,0,1-1.09,1.12,3.26,3.26,0,0,1-1.6.37,3.2,3.2,0,0,1-1.66-.41,2.67,2.67,0,0,1-1.08-1.15,3.72,3.72,0,0,1-.39-1.74v-5.31h1.32v5.21a2.38,2.38,0,0,0,.55,1.68,2,2,0,0,0,1.54.6,2.47,2.47,0,0,0,1.24-.3,2.06,2.06,0,0,0,.83-.85,2.89,2.89,0,0,0,.29-1.32Z"/><path class="cls-3" d="M262.11,160a2.9,2.9,0,0,1-1.21-.9,2.13,2.13,0,0,1-.44-1.31h1.31a1.23,1.23,0,0,0,.29.76,1.75,1.75,0,0,0,.74.51,3.06,3.06,0,0,0,1.08.19,2.39,2.39,0,0,0,1.46-.4,1.29,1.29,0,0,0,.52-1.07,1.19,1.19,0,0,0-.32-.86,1.5,1.5,0,0,0-.93-.43l-1.53-.24a3,3,0,0,1-1.72-.8,2.15,2.15,0,0,1-.61-1.57,2,2,0,0,1,.39-1.23,2.61,2.61,0,0,1,1.08-.83,3.92,3.92,0,0,1,1.57-.3,4.19,4.19,0,0,1,1.63.3,2.71,2.71,0,0,1,1.13.84,2,2,0,0,1,.43,1.22h-1.31a1.12,1.12,0,0,0-.26-.66,1.78,1.78,0,0,0-.68-.46,2.59,2.59,0,0,0-1-.17,2.65,2.65,0,0,0-.92.16,1.5,1.5,0,0,0-.63.45,1,1,0,0,0-.23.65,1.06,1.06,0,0,0,.3.79,1.53,1.53,0,0,0,.87.39l1.58.26a3,3,0,0,1,1.76.82,2.24,2.24,0,0,1,.61,1.63,2.39,2.39,0,0,1-.39,1.36,2.58,2.58,0,0,1-1.12.9,4.16,4.16,0,0,1-1.68.32A4.89,4.89,0,0,1,262.11,160Z"/><path class="cls-3" d="M268.87,150.14v-1.56h1.49v1.56Zm1.4,9.93H269v-8.41h1.31Z"/><path class="cls-3" d="M278.33,151.87a2.72,2.72,0,0,1,1.09,1.16,3.84,3.84,0,0,1,.38,1.74v5.3h-1.31v-5.2a2.38,2.38,0,0,0-.56-1.68,2,2,0,0,0-1.54-.61,2.5,2.5,0,0,0-1.24.3,2.06,2.06,0,0,0-.82.86,2.74,2.74,0,0,0-.29,1.32v5h-1.32v-8.41H274V153a2.75,2.75,0,0,1,1.08-1.11,3.3,3.3,0,0,1,1.61-.37A3.25,3.25,0,0,1,278.33,151.87Z"/><path class="cls-3" d="M289.4,156.19h-6.67a3.65,3.65,0,0,0,.46,1.53,2.73,2.73,0,0,0,1,1,2.64,2.64,0,0,0,1.4.37,3.14,3.14,0,0,0,1-.16,2.83,2.83,0,0,0,.84-.46,1.68,1.68,0,0,0,.52-.68h1.26a2.44,2.44,0,0,1-.67,1.25,3.81,3.81,0,0,1-1.34.88,4.64,4.64,0,0,1-1.71.32,4,4,0,0,1-2.13-.57,3.89,3.89,0,0,1-1.46-1.57,4.85,4.85,0,0,1-.53-2.28,4.78,4.78,0,0,1,.53-2.24,4,4,0,0,1,3.59-2.14,3.63,3.63,0,0,1,2,.57,3.88,3.88,0,0,1,1.4,1.57,5.1,5.1,0,0,1,.5,2.26Zm-5.73-2.9a2.91,2.91,0,0,0-.9,1.81H288a3.1,3.1,0,0,0-.84-1.81,2.32,2.32,0,0,0-1.68-.67A2.65,2.65,0,0,0,283.67,153.29Z"/><path class="cls-3" d="M292.14,160a2.84,2.84,0,0,1-1.21-.9,2.13,2.13,0,0,1-.44-1.31h1.31a1.23,1.23,0,0,0,.29.76,1.75,1.75,0,0,0,.74.51,3.06,3.06,0,0,0,1.08.19,2.39,2.39,0,0,0,1.46-.4,1.28,1.28,0,0,0,.51-1.07,1.18,1.18,0,0,0-.31-.86,1.51,1.51,0,0,0-.94-.43l-1.52-.24a3,3,0,0,1-1.72-.8,2.16,2.16,0,0,1-.62-1.57,2,2,0,0,1,.39-1.23,2.64,2.64,0,0,1,1.09-.83,3.92,3.92,0,0,1,1.57-.3,4.18,4.18,0,0,1,1.62.3,2.74,2.74,0,0,1,1.14.84,2.08,2.08,0,0,1,.43,1.22h-1.32a1,1,0,0,0-.25-.66,1.78,1.78,0,0,0-.68-.46,2.73,2.73,0,0,0-1.87,0,1.5,1.5,0,0,0-.63.45,1,1,0,0,0-.23.65,1.06,1.06,0,0,0,.3.79,1.47,1.47,0,0,0,.87.39l1.57.26a3,3,0,0,1,1.77.82,2.28,2.28,0,0,1,.61,1.63,2.32,2.32,0,0,1-.4,1.36,2.5,2.5,0,0,1-1.11.9,4.24,4.24,0,0,1-1.69.32A4.83,4.83,0,0,1,292.14,160Z"/><path class="cls-3" d="M300,160a2.84,2.84,0,0,1-1.21-.9,2.13,2.13,0,0,1-.44-1.31h1.31a1.23,1.23,0,0,0,.29.76,1.75,1.75,0,0,0,.74.51,3.06,3.06,0,0,0,1.08.19,2.39,2.39,0,0,0,1.46-.4,1.28,1.28,0,0,0,.51-1.07,1.18,1.18,0,0,0-.31-.86,1.53,1.53,0,0,0-.94-.43l-1.52-.24a3,3,0,0,1-1.72-.8,2.16,2.16,0,0,1-.62-1.57,2,2,0,0,1,.39-1.23,2.64,2.64,0,0,1,1.09-.83,3.89,3.89,0,0,1,1.57-.3,4.18,4.18,0,0,1,1.62.3,2.74,2.74,0,0,1,1.14.84,2.08,2.08,0,0,1,.43,1.22h-1.32a1,1,0,0,0-.25-.66,1.78,1.78,0,0,0-.68-.46,2.69,2.69,0,0,0-1-.17,2.59,2.59,0,0,0-.91.16,1.5,1.5,0,0,0-.63.45,1,1,0,0,0-.23.65,1.06,1.06,0,0,0,.3.79,1.47,1.47,0,0,0,.87.39l1.57.26a3,3,0,0,1,1.77.82,2.28,2.28,0,0,1,.61,1.63,2.32,2.32,0,0,1-.4,1.36,2.5,2.5,0,0,1-1.11.9,4.24,4.24,0,0,1-1.69.32A4.83,4.83,0,0,1,300,160Z"/><path class="cls-3" d="M310.1,160.07h-1.35L314,148.58h1.34Z"/><path class="cls-3" d="M320.05,160.07V148.58h4.07a5.64,5.64,0,0,1,2.87.72,5,5,0,0,1,1.95,2,6.74,6.74,0,0,1,0,6,5,5,0,0,1-1.95,2,5.64,5.64,0,0,1-2.87.72Zm4.07-1.27a4.05,4.05,0,0,0,2.14-.57,3.76,3.76,0,0,0,1.45-1.58,5.46,5.46,0,0,0,0-4.65,3.85,3.85,0,0,0-1.45-1.59,4.14,4.14,0,0,0-2.14-.56h-2.71v9Z"/><path class="cls-3" d="M333,159.7a4.07,4.07,0,0,1-1.51-1.57,4.92,4.92,0,0,1,0-4.52A4.1,4.1,0,0,1,333,152a4.42,4.42,0,0,1,4.34,0,4,4,0,0,1,1.52,1.57,4.58,4.58,0,0,1,.55,2.26,4.69,4.69,0,0,1-.55,2.26,4.05,4.05,0,0,1-1.53,1.57,4.42,4.42,0,0,1-4.34,0Zm3.65-1a2.84,2.84,0,0,0,1-1.12,4,4,0,0,0,0-3.34,2.77,2.77,0,0,0-5,0,4,4,0,0,0,0,3.34,2.84,2.84,0,0,0,1,1.12,2.9,2.9,0,0,0,2.94,0Z"/><path class="cls-3" d="M352.13,151.88A2.85,2.85,0,0,1,353.2,153a3.83,3.83,0,0,1,.37,1.73v5.3h-1.31v-5.24a2.44,2.44,0,0,0-.51-1.66,1.78,1.78,0,0,0-1.43-.59,2.14,2.14,0,0,0-2,1.28,3.43,3.43,0,0,0-.28,1.44v4.77h-1.31v-5.24a2.43,2.43,0,0,0-.53-1.66,1.87,1.87,0,0,0-1.46-.59,2.08,2.08,0,0,0-1.21.34,2,2,0,0,0-.77.94,3.59,3.59,0,0,0-.27,1.44v4.77h-1.31v-8.41h1.26v1.24a2.79,2.79,0,0,1,1-1.06,2.93,2.93,0,0,1,1.5-.37,3,3,0,0,1,1.63.44,2.86,2.86,0,0,1,1.09,1.22,3.1,3.1,0,0,1,1.16-1.22,3.15,3.15,0,0,1,1.68-.44A3,3,0,0,1,352.13,151.88Z"/><path class="cls-3" d="M360.68,151.82a2.61,2.61,0,0,1,1.12,1,3.11,3.11,0,0,1,.39,1.6v5.64h-1.28v-1.24a2.55,2.55,0,0,1-1.11,1.07,3.67,3.67,0,0,1-1.72.37,3.31,3.31,0,0,1-1.47-.31,2.28,2.28,0,0,1-1-.86,2.21,2.21,0,0,1-.36-1.25,2.32,2.32,0,0,1,.33-1.21,2.54,2.54,0,0,1,.93-.91,3.12,3.12,0,0,1,1.33-.43l2.46-.24a.63.63,0,0,0,.43-.23,1,1,0,0,0,.16-.6,1.58,1.58,0,0,0-.24-.87,1.6,1.6,0,0,0-.67-.59,2.41,2.41,0,0,0-1-.2,2.61,2.61,0,0,0-1,.19,1.85,1.85,0,0,0-.75.51,1.32,1.32,0,0,0-.33.73h-1.29a2.33,2.33,0,0,1,.55-1.28,3.26,3.26,0,0,1,1.22-.92,4.05,4.05,0,0,1,1.65-.33A3.67,3.67,0,0,1,360.68,151.82Zm-1,7.13a2.19,2.19,0,0,0,.91-.82,2.29,2.29,0,0,0,.32-1.2v-1l-2.86.29a1.6,1.6,0,0,0-1.06.49,1.44,1.44,0,0,0-.19,1.77,1.5,1.5,0,0,0,.63.53,2.22,2.22,0,0,0,.92.18A2.86,2.86,0,0,0,359.66,159Z"/><path class="cls-3" d="M364.35,150.14v-1.56h1.49v1.56Zm1.4,9.93h-1.31v-8.41h1.31Z"/><path class="cls-3" d="M373.81,151.87A2.72,2.72,0,0,1,374.9,153a3.84,3.84,0,0,1,.38,1.74v5.3H374v-5.2a2.38,2.38,0,0,0-.56-1.68,2,2,0,0,0-1.54-.61,2.5,2.5,0,0,0-1.24.3,2.06,2.06,0,0,0-.82.86,2.74,2.74,0,0,0-.29,1.32v5H368.2v-8.41h1.27V153a2.75,2.75,0,0,1,1.08-1.11,3.3,3.3,0,0,1,1.61-.37A3.25,3.25,0,0,1,373.81,151.87Z"/><polygon class="cls-3" points="259.08 220.27 247.59 220.27 247.59 208.78 259.08 208.78 253.34 214.52 259.08 220.27"/><path class="cls-3" d="M267.64,220.27v-11.5h4.07a5.61,5.61,0,0,1,2.88.73,5.08,5.08,0,0,1,2,2,6.82,6.82,0,0,1,0,6,5.08,5.08,0,0,1-2,2,5.61,5.61,0,0,1-2.88.73Zm4.07-1.27a4,4,0,0,0,2.14-.57,3.82,3.82,0,0,0,1.45-1.58,5.48,5.48,0,0,0,0-4.66,3.88,3.88,0,0,0-1.45-1.58,4,4,0,0,0-2.14-.57H269v9Z"/><path class="cls-3" d="M284.05,212a2.5,2.5,0,0,1,1.11,1,3.08,3.08,0,0,1,.39,1.6v5.64h-1.28V219a2.55,2.55,0,0,1-1.1,1.08,3.8,3.8,0,0,1-1.72.37,3.46,3.46,0,0,1-1.48-.31,2.41,2.41,0,0,1-1-.86,2.24,2.24,0,0,1-.36-1.26,2.35,2.35,0,0,1,.34-1.21,2.56,2.56,0,0,1,.92-.9,3.16,3.16,0,0,1,1.34-.43l2.46-.25a.56.56,0,0,0,.43-.23,1,1,0,0,0,.16-.59,1.54,1.54,0,0,0-.25-.88,1.59,1.59,0,0,0-.67-.58,2.26,2.26,0,0,0-1-.21,2.8,2.8,0,0,0-1,.19,2,2,0,0,0-.74.52,1.34,1.34,0,0,0-.34.72H279a2.4,2.4,0,0,1,.54-1.27,3.12,3.12,0,0,1,1.23-.92,3.9,3.9,0,0,1,1.65-.34A3.83,3.83,0,0,1,284.05,212Zm-1,7.14a2.13,2.13,0,0,0,.91-.82,2.27,2.27,0,0,0,.33-1.21v-1l-2.87.3a1.62,1.62,0,0,0-1.06.48,1.41,1.41,0,0,0-.4,1,1.31,1.31,0,0,0,.22.76,1.51,1.51,0,0,0,.62.52,2.1,2.1,0,0,0,.92.19A3,3,0,0,0,283,219.15Z"/><path class="cls-3" d="M290.06,220.27a2.09,2.09,0,0,1-1.44-.48,1.75,1.75,0,0,1-.53-1.34V213h-1.47v-1.17h.92a.69.69,0,0,0,.5-.2.68.68,0,0,0,.19-.5v-1.4h1.19v2.1h2V213h-2v5.33a.72.72,0,0,0,.2.55.73.73,0,0,0,.54.19h1.28v1.17Z"/><path class="cls-3" d="M298.12,212a2.5,2.5,0,0,1,1.11,1,3.08,3.08,0,0,1,.39,1.6v5.64h-1.28V219a2.55,2.55,0,0,1-1.1,1.08,3.8,3.8,0,0,1-1.72.37,3.46,3.46,0,0,1-1.48-.31,2.41,2.41,0,0,1-1-.86,2.35,2.35,0,0,1,0-2.47,2.56,2.56,0,0,1,.92-.9,3.12,3.12,0,0,1,1.34-.43l2.46-.25a.56.56,0,0,0,.43-.23,1,1,0,0,0,.16-.59,1.54,1.54,0,0,0-.25-.88,1.59,1.59,0,0,0-.67-.58,2.26,2.26,0,0,0-1-.21,2.8,2.8,0,0,0-1,.19,2,2,0,0,0-.74.52,1.34,1.34,0,0,0-.34.72H293a2.4,2.4,0,0,1,.54-1.27,3.16,3.16,0,0,1,1.22-.92,4,4,0,0,1,1.66-.34A3.83,3.83,0,0,1,298.12,212Zm-1,7.14a2.13,2.13,0,0,0,.91-.82,2.27,2.27,0,0,0,.33-1.21v-1l-2.87.3a1.62,1.62,0,0,0-1.06.48,1.41,1.41,0,0,0-.4,1,1.31,1.31,0,0,0,.22.76,1.51,1.51,0,0,0,.62.52,2.1,2.1,0,0,0,.92.19A3,3,0,0,0,297.09,219.15Z"/><path class="cls-3" d="M305.17,220.27h-1.35l5.22-11.5h1.35Z"/><path class="cls-3" d="M316.59,219.69a5.52,5.52,0,0,1-2-2.13,6.41,6.41,0,0,1-.73-3,6.34,6.34,0,0,1,.73-3,5.48,5.48,0,0,1,2-2.14,5.6,5.6,0,0,1,5.29-.22,5.48,5.48,0,0,1,1.86,1.49,4.19,4.19,0,0,1,.89,2h-1.37a3.26,3.26,0,0,0-.71-1.38,4.06,4.06,0,0,0-1.37-1,4,4,0,0,0-1.73-.39,3.86,3.86,0,0,0-2.15.61,4.12,4.12,0,0,0-1.5,1.67,5.6,5.6,0,0,0,0,4.84,4.21,4.21,0,0,0,1.5,1.68,4.13,4.13,0,0,0,5.25-.82,3.28,3.28,0,0,0,.71-1.37h1.37a4.2,4.2,0,0,1-.89,2,5.36,5.36,0,0,1-1.86,1.49,5.6,5.6,0,0,1-5.29-.22Z"/><path class="cls-3" d="M327.92,219.9a4,4,0,0,1-1.51-1.58,4.9,4.9,0,0,1,0-4.51,4,4,0,0,1,1.52-1.58,4.4,4.4,0,0,1,4.33,0,4,4,0,0,1,1.52,1.58,4.9,4.9,0,0,1,0,4.51,4.12,4.12,0,0,1-1.52,1.58,4.25,4.25,0,0,1-2.18.57A4.15,4.15,0,0,1,327.92,219.9Zm3.65-1.05a2.68,2.68,0,0,0,1-1.12,3.57,3.57,0,0,0,.37-1.67,3.63,3.63,0,0,0-.37-1.67,2.68,2.68,0,0,0-1-1.12,2.75,2.75,0,0,0-1.47-.4,2.7,2.7,0,0,0-1.47.4,2.64,2.64,0,0,0-1,1.12,3.63,3.63,0,0,0-.37,1.67,3.57,3.57,0,0,0,.37,1.67,2.64,2.64,0,0,0,1,1.12,2.7,2.7,0,0,0,1.47.4A2.75,2.75,0,0,0,331.57,218.85Z"/><path class="cls-3" d="M340.18,211.78v1.37h-.3a2.38,2.38,0,0,0-1.81.69,2.7,2.7,0,0,0-.66,1.94v4.49H336.1v-8.41h1.31v1.69a3,3,0,0,1,1-1.31,2.54,2.54,0,0,1,1.53-.46Z"/><path class="cls-3" d="M348.9,216.39h-6.67a3.71,3.71,0,0,0,.46,1.52,2.65,2.65,0,0,0,2.39,1.41,3.15,3.15,0,0,0,1-.17,2.63,2.63,0,0,0,.84-.46,1.65,1.65,0,0,0,.52-.67h1.27a2.54,2.54,0,0,1-.68,1.25,4,4,0,0,1-1.34.88,4.6,4.6,0,0,1-1.71.32,4,4,0,0,1-2.13-.57,4,4,0,0,1-1.46-1.57,4.85,4.85,0,0,1-.53-2.28,4.61,4.61,0,0,1,.54-2.24,3.93,3.93,0,0,1,1.47-1.58,4,4,0,0,1,2.11-.57,3.63,3.63,0,0,1,2,.57,3.91,3.91,0,0,1,1.4,1.58,4.9,4.9,0,0,1,.5,2.25Zm-5.73-2.9a2.88,2.88,0,0,0-.9,1.81h5.26a3.1,3.1,0,0,0-.84-1.81,2.28,2.28,0,0,0-1.68-.67A2.61,2.61,0,0,0,343.17,213.49Z"/><path class="cls-3" d="M243.14,50.91a3.72,3.72,0,0,1-1.35-1.43,4.45,4.45,0,0,1,0-4.06A3.65,3.65,0,0,1,243.14,44a3.77,3.77,0,0,1,3.54-.15,3.53,3.53,0,0,1,1.25,1,2.84,2.84,0,0,1,.59,1.33h-.91a2.1,2.1,0,0,0-.48-.92,2.62,2.62,0,0,0-.91-.69,2.73,2.73,0,0,0-1.16-.26,2.67,2.67,0,0,0-1.45.41,2.79,2.79,0,0,0-1,1.12,3.83,3.83,0,0,0,0,3.24,2.79,2.79,0,0,0,1,1.12,2.66,2.66,0,0,0,1.45.4,2.72,2.72,0,0,0,1.16-.25,2.88,2.88,0,0,0,.91-.69,2.08,2.08,0,0,0,.48-.93h.91a2.83,2.83,0,0,1-.59,1.34,3.53,3.53,0,0,1-1.25,1,3.77,3.77,0,0,1-3.54-.15Z"/><path class="cls-3" d="M250.73,51.05a2.71,2.71,0,0,1-1-1.06,3.27,3.27,0,0,1,0-3,2.62,2.62,0,0,1,1-1,2.91,2.91,0,0,1,2.91,0,2.62,2.62,0,0,1,1,1,3.27,3.27,0,0,1,0,3,2.81,2.81,0,0,1-1,1.06,2.86,2.86,0,0,1-1.46.38A2.82,2.82,0,0,1,250.73,51.05Zm2.44-.7a1.83,1.83,0,0,0,.68-.75,2.37,2.37,0,0,0,.25-1.12,2.4,2.4,0,0,0-.25-1.12,1.86,1.86,0,0,0-3.33,0,2.4,2.4,0,0,0-.25,1.12,2.37,2.37,0,0,0,.25,1.12,1.89,1.89,0,0,0,2.65.75Z"/><path class="cls-3" d="M263.56,45.81a1.91,1.91,0,0,1,.71.78,2.51,2.51,0,0,1,.25,1.16V51.3h-.88V47.78a1.61,1.61,0,0,0-.34-1.1,1.16,1.16,0,0,0-1-.4,1.51,1.51,0,0,0-.82.23,1.44,1.44,0,0,0-.53.63,2.42,2.42,0,0,0-.19,1v3.2h-.88V47.78a1.56,1.56,0,0,0-.35-1.1,1.22,1.22,0,0,0-1-.4,1.45,1.45,0,0,0-.81.23,1.34,1.34,0,0,0-.51.63,2.42,2.42,0,0,0-.18,1v3.2h-.88V45.67h.84v.83a1.94,1.94,0,0,1,.7-.72,2.15,2.15,0,0,1,2.1,0,1.85,1.85,0,0,1,.72.82,2.2,2.2,0,0,1,3-.84Z"/><path class="cls-3" d="M270.26,45.92a2.71,2.71,0,0,1,1,1.06,3.41,3.41,0,0,1,0,3,2.71,2.71,0,0,1-1,1.06,2.6,2.6,0,0,1-1.38.38,2.34,2.34,0,0,1-1.16-.28,2.15,2.15,0,0,1-.84-.8v.36l0,2.36H266v-7.4h.85v.95a2.08,2.08,0,0,1,.84-.8,2.35,2.35,0,0,1,1.16-.29A2.52,2.52,0,0,1,270.26,45.92Zm-.5,4.44a2,2,0,0,0,.66-.77,2.57,2.57,0,0,0,0-2.21,1.85,1.85,0,0,0-.66-.77,1.8,1.8,0,0,0-1.93,0,1.82,1.82,0,0,0-.68.77,2.66,2.66,0,0,0,0,2.21,2,2,0,0,0,.68.77,1.8,1.8,0,0,0,1.93,0Z"/><path class="cls-3" d="M273.7,51.05a2.81,2.81,0,0,1-1-1.06,3.35,3.35,0,0,1,0-3,2.71,2.71,0,0,1,1-1,2.91,2.91,0,0,1,2.91,0,2.62,2.62,0,0,1,1,1,3.27,3.27,0,0,1,0,3,2.81,2.81,0,0,1-1,1.06,2.86,2.86,0,0,1-1.46.38A2.82,2.82,0,0,1,273.7,51.05Zm2.44-.7a1.83,1.83,0,0,0,.68-.75,2.37,2.37,0,0,0,.25-1.12,2.4,2.4,0,0,0-.25-1.12,1.86,1.86,0,0,0-3.33,0,2.4,2.4,0,0,0-.25,1.12,2.37,2.37,0,0,0,.25,1.12,1.89,1.89,0,0,0,2.65.75Z"/><path class="cls-3" d="M279.83,51.21a1.89,1.89,0,0,1-.82-.6,1.44,1.44,0,0,1-.29-.87h.88a.81.81,0,0,0,.19.5,1.25,1.25,0,0,0,.5.35,2,2,0,0,0,.72.12,1.65,1.65,0,0,0,1-.26.86.86,0,0,0,.34-.72.81.81,0,0,0-.21-.58,1.09,1.09,0,0,0-.62-.29l-1-.16a2,2,0,0,1-1.15-.53,1.46,1.46,0,0,1-.41-1.05,1.38,1.38,0,0,1,.26-.82,1.73,1.73,0,0,1,.73-.56,2.52,2.52,0,0,1,1.05-.21,2.72,2.72,0,0,1,1.09.21,1.82,1.82,0,0,1,.76.56,1.41,1.41,0,0,1,.29.82h-.88a.74.74,0,0,0-.18-.44,1.07,1.07,0,0,0-.45-.31,1.62,1.62,0,0,0-.64-.12,1.66,1.66,0,0,0-.61.11,1,1,0,0,0-.43.3.69.69,0,0,0-.15.44.74.74,0,0,0,.2.53,1,1,0,0,0,.58.26l1.06.17a2,2,0,0,1,1.18.55,1.52,1.52,0,0,1,.41,1.09,1.55,1.55,0,0,1-.27.91,1.73,1.73,0,0,1-.74.61,2.85,2.85,0,0,1-1.13.21A3,3,0,0,1,279.83,51.21Z"/><path class="cls-3" d="M289.33,48.7h-4.46a2.43,2.43,0,0,0,.3,1,1.78,1.78,0,0,0,.67.69,1.71,1.71,0,0,0,.93.25,2.2,2.2,0,0,0,.68-.11,1.79,1.79,0,0,0,.56-.31,1.06,1.06,0,0,0,.35-.45h.85a1.75,1.75,0,0,1-.46.84,2.66,2.66,0,0,1-.89.59,3.12,3.12,0,0,1-1.14.21,2.73,2.73,0,0,1-1.43-.38,2.55,2.55,0,0,1-1-1,3.2,3.2,0,0,1-.36-1.53,3.14,3.14,0,0,1,.36-1.5,2.7,2.7,0,0,1,2.41-1.44,2.41,2.41,0,0,1,1.34.39,2.59,2.59,0,0,1,.94,1,3.41,3.41,0,0,1,.33,1.51Zm-3.84-1.94a2,2,0,0,0-.6,1.21h3.53a2.12,2.12,0,0,0-.57-1.21,1.52,1.52,0,0,0-1.12-.45A1.77,1.77,0,0,0,285.49,46.76Z"/><path class="cls-3" d="M294,51.3H293V43.6h1.17l2.73,6.3.15.4.14-.4,2.66-6.3h1.2v7.7h-.91V44.91l-2.71,6.39h-.8L294,44.94Z"/><path class="cls-3" d="M306.68,45.67h.88V51.3h-.85v-.87a1.86,1.86,0,0,1-.72.75,2.44,2.44,0,0,1-2.19,0,1.87,1.87,0,0,1-.73-.77,2.58,2.58,0,0,1-.25-1.17V45.67h.88v3.48a1.6,1.6,0,0,0,.37,1.13,1.33,1.33,0,0,0,1,.4,1.6,1.6,0,0,0,.83-.2,1.32,1.32,0,0,0,.55-.57,1.9,1.9,0,0,0,.2-.88Z"/><path class="cls-3" d="M310.08,51.3h-.88V43.6h.88Z"/><path class="cls-3" d="M313.23,51.3a1.33,1.33,0,0,1-1-.33,1.12,1.12,0,0,1-.36-.89V46.45h-1v-.78h.61a.46.46,0,0,0,.34-.14.43.43,0,0,0,.13-.33v-.94h.79v1.41h1.36v.78h-1.36V50a.5.5,0,0,0,.14.37.53.53,0,0,0,.36.13h.85v.78Z"/><path class="cls-3" d="M315.31,44.64v-1h1v1Zm.94,6.66h-.88V45.67h.88Z"/><path class="cls-3" d="M322.12,45.92a2.71,2.71,0,0,1,1,1.06,3.41,3.41,0,0,1,0,3,2.71,2.71,0,0,1-1,1.06,2.6,2.6,0,0,1-1.38.38,2.34,2.34,0,0,1-1.16-.28,2.15,2.15,0,0,1-.84-.8v.36l0,2.36h-.87v-7.4h.85v.95a2.08,2.08,0,0,1,.84-.8,2.35,2.35,0,0,1,1.16-.29A2.52,2.52,0,0,1,322.12,45.92Zm-.5,4.44a2,2,0,0,0,.66-.77,2.57,2.57,0,0,0,0-2.21,1.85,1.85,0,0,0-.66-.77,1.8,1.8,0,0,0-1.93,0,1.82,1.82,0,0,0-.68.77,2.66,2.66,0,0,0,0,2.21,2,2,0,0,0,.68.77,1.8,1.8,0,0,0,1.93,0Z"/><path class="cls-3" d="M325.51,51.3h-.88V43.6h.88Z"/><path class="cls-3" d="M330.41,45.77a1.63,1.63,0,0,1,.74.68,2,2,0,0,1,.27,1.07V51.3h-.86v-.84a1.71,1.71,0,0,1-.74.72,2.44,2.44,0,0,1-1.15.25,2.22,2.22,0,0,1-1-.21,1.5,1.5,0,0,1-.67-.57,1.53,1.53,0,0,1-.24-.84A1.49,1.49,0,0,1,327,49a1.81,1.81,0,0,1,.62-.61,2.17,2.17,0,0,1,.9-.29l1.64-.16a.37.37,0,0,0,.29-.16.62.62,0,0,0,.11-.39,1,1,0,0,0-.17-.59,1,1,0,0,0-.45-.39,1.54,1.54,0,0,0-.67-.14,1.72,1.72,0,0,0-.68.13,1.39,1.39,0,0,0-.5.34.87.87,0,0,0-.22.49H327a1.6,1.6,0,0,1,.36-.86,2.13,2.13,0,0,1,.82-.61,2.72,2.72,0,0,1,1.11-.23A2.52,2.52,0,0,1,330.41,45.77Zm-.69,4.78a1.55,1.55,0,0,0,.61-.55,1.58,1.58,0,0,0,.22-.81v-.64l-1.92.2a1.08,1.08,0,0,0-.71.33.93.93,0,0,0-.27.68.9.9,0,0,0,.15.51,1,1,0,0,0,.41.35,1.52,1.52,0,0,0,.62.12A2,2,0,0,0,329.72,50.55Z"/><path class="cls-3" d="M334.43,51.3a1.37,1.37,0,0,1-1-.33,1.12,1.12,0,0,1-.36-.89V46.45h-1v-.78h.61a.44.44,0,0,0,.34-.14.43.43,0,0,0,.13-.33v-.94H334v1.41h1.36v.78H334V50a.5.5,0,0,0,.14.37.53.53,0,0,0,.36.13h.86v.78Z"/><path class="cls-3" d="M336.82,51.3V46.45h-1v-.78h1v-.85a1.15,1.15,0,0,1,.35-.9,1.38,1.38,0,0,1,1-.32h1v.78h-1a.45.45,0,0,0-.36.13.48.48,0,0,0-.13.36v.8h1.39v.78H337.7V51.3Z"/><path class="cls-3" d="M341,51.05A2.86,2.86,0,0,1,340,50a3.27,3.27,0,0,1,0-3,2.71,2.71,0,0,1,1-1,2.89,2.89,0,0,1,2.9,0,2.58,2.58,0,0,1,1,1,3.27,3.27,0,0,1,0,3,2.81,2.81,0,0,1-1,1.06,3,3,0,0,1-2.91,0Zm2.45-.7a1.9,1.9,0,0,0,.68-.75,2.5,2.5,0,0,0,.25-1.12,2.53,2.53,0,0,0-.25-1.12,1.9,1.9,0,0,0-.68-.75,1.86,1.86,0,0,0-2.65.75,2.4,2.4,0,0,0-.25,1.12,2.37,2.37,0,0,0,.25,1.12,1.89,1.89,0,0,0,2.65.75Z"/><path class="cls-3" d="M349.24,45.61v.92H349a1.6,1.6,0,0,0-1.21.46,1.83,1.83,0,0,0-.44,1.3v3h-.88V45.67h.88V46.8a2,2,0,0,1,.67-.88,1.65,1.65,0,0,1,1-.31Z"/><path class="cls-3" d="M357.53,45.81a1.94,1.94,0,0,1,.72.78,2.51,2.51,0,0,1,.25,1.16V51.3h-.88V47.78a1.61,1.61,0,0,0-.34-1.1,1.18,1.18,0,0,0-1-.4,1.49,1.49,0,0,0-.82.23,1.38,1.38,0,0,0-.53.63,2.25,2.25,0,0,0-.19,1v3.2h-.88V47.78a1.61,1.61,0,0,0-.35-1.1,1.23,1.23,0,0,0-1-.4,1.41,1.41,0,0,0-.81.23,1.36,1.36,0,0,0-.52.63,2.42,2.42,0,0,0-.18,1v3.2h-.88V45.67H351v.83a1.94,1.94,0,0,1,.7-.72,2.13,2.13,0,0,1,2.09,0,1.87,1.87,0,0,1,.73.82,2.19,2.19,0,0,1,3-.84Z"/><polygon class="cls-3" points="284.63 33.97 273.14 33.97 273.14 22.48 284.63 22.48 278.88 28.23 284.63 33.97"/><path class="cls-3" d="M295.39,33.6a4.15,4.15,0,0,1-1.6-1.62,4.9,4.9,0,0,1-.57-2.38V22.48h1.37V29.6a3.71,3.71,0,0,0,.39,1.73,2.81,2.81,0,0,0,1.11,1.18,3.26,3.26,0,0,0,1.67.42,3.1,3.1,0,0,0,1.62-.42,2.89,2.89,0,0,0,1.09-1.18,3.71,3.71,0,0,0,.39-1.73V22.48h1.36V29.6a4.89,4.89,0,0,1-.56,2.38,4.17,4.17,0,0,1-1.58,1.62,4.57,4.57,0,0,1-2.32.58A4.73,4.73,0,0,1,295.39,33.6Z"/><path class="cls-3" d="M306.52,34h-1.36V22.48h1.36Z"/></svg>